<svg style="position: absolute; width: 0; height: 0;" width="0" height="0" version="1.1" xmlns="http://www.w3.org/2000/svg" xmlns:xlink="http://www.w3.org/1999/xlink"><defs><symbol id="a" viewBox="0 -212 1024 1024"><path d="M241 638 l66 0 l-92 174 l-100 -174 l85 0 l0 -50 l-26 0 q-34 0 -100 -18 q-58 -7 -74 -32 l0 -101 q24 34 81 50 q59 25 111 25 q166 0 166 -117 q0 -40 -19 -66 q-16 -26 -48 -42 q-25 -24 -108 -66 q-127 -67 -159 -115 q-24 -36 -24 -102 q0 -82 66 -142 q74 -58 183 -58 q109 0 158 24 l0 102 q-57 -52 -166 -52 q-67 0 -115 36 q-52 22 -52 82 q0 32 15 57 q26 34 43 45 q34 13 109 56 q117 57 157 109 q51 58 51 117 q0 99 -74 151 q-52 39 -134 47 l0 60 Z"></path></symbol><symbol id="b" viewBox="0 -212 1024 1024"><path d="M0 661 q36 33 94 51 q57 23 108 23 q167 0 167 -115 q0 -41 -15 -68 q-27 -27 -51 -42 q-35 -25 -109 -66 q-133 -67 -158 -118 q-36 -35 -36 -101 q0 -84 69 -143 q82 -59 191 -59 q118 0 161 28 l0 97 q-60 -48 -168 -48 q-74 0 -118 33 q-41 25 -41 84 q0 33 8 58 q16 36 49 43 q18 17 102 59 q116 59 158 108 q52 59 52 117 q0 102 -85 152 q-66 58 -184 58 q-43 0 -109 -17 q-60 -7 -85 -34 l0 -100 Z"></path></symbol><symbol id="c" viewBox="0 -212 1024 1024"><path d="M372 0 l42 26 l-178 178 l170 161 l347 -357 l41 44 l-362 354 l194 178 l168 -170 l34 34 l-176 178 l127 119 l-34 41 l-119 -118 l-160 144 l-44 -26 l160 -160 l-176 -186 l-380 364 l-26 -25 l363 -373 l-161 -168 l-160 168 l-34 -41 l160 -161 l-152 -145 l43 -41 l143 150 l170 -168 Z"></path></symbol><symbol id="d" viewBox="0 -212 1024 1024"><path d="M811 36 l-148 142 q70 87 70 214 q0 143 -92 229 q-85 93 -229 93 q-128 0 -213 -72 l-171 170 l-28 -28 l177 -177 q-78 -87 -78 -215 q0 -136 93 -220 q85 -93 220 -93 q129 0 215 79 l150 -157 l34 35 ZM404 675 q128 0 207 -79 q85 -85 85 -206 q0 -107 -69 -177 l-400 399 q64 63 177 63 ZM414 123 q-129 0 -192 79 q-78 72 -78 192 q0 115 56 186 l399 -400 q-78 -57 -185 -57 Z"></path></symbol><symbol id="e" viewBox="0 -212 1024 1024"><path d="M108 242 q0 272 230 265 q207 7 207 -265 l0 -454 l73 0 l0 454 q0 166 -65 247 q-58 76 -205 83 l0 66 l89 0 l-114 174 l-91 -174 l73 0 l0 -66 q-305 -7 -272 -330 l0 -454 l75 0 l0 454 Z"></path></symbol><symbol id="f" viewBox="0 -212 1024 1024"><path d="M10 491.82 q-8 338 313 330 q313 8 305 -330 l0 -465 l-93 0 l0 449 q8 286 -212 277 q-228 9 -228 -277 l0 -449 l-85 0 l0 465 Z"></path></symbol><symbol id="i" viewBox="0 -212 1024 1024"><path d="M397 358 q20 46 29 113 q28 -67 37 -113 l264 -570 l133 0 l0 796 l-93 0 l0 -550 q0 -75 9 -168 q-20 26 -29 93 l-284 625 l-9 20 l105 0 l-133 208 l-105 -208 l85 0 l0 -20 l-284 -605 q-18 -49 -29 -113 q0 17 11 37 q9 104 9 131 l0 550 l-113 0 l0 -796 l133 0 l264 570 Z"></path></symbol><symbol id="j" viewBox="0 -212 1024 1024"><path d="M96 237 q0 -18 -8 -114 q-10 -43 -10 -51 q18 61 26 104 l261 636 l52 0 l262 -636 q16 -69 16 -104 l0 740 l88 0 l0 -811 l-122 0 l-235 593 q-16 51 -27 112 q-26 -61 -43 -112 l-234 -593 l-122 0 l0 811 l96 0 l0 -575 Z"></path></symbol><symbol id="k" viewBox="0 -212 1024 1024"><path d="M311 -61 l80 71 l-34 24 l-357 0 l0 56 l318 0 l0 683 l-318 0 l0 39 l357 0 l0 -739 l41 -39 l80 87 l151 -333 l-318 151 Z"></path></symbol><symbol id="l" viewBox="0 -212 1024 1024"><path d="M298 661 l332 151 l-149 -315 l-87 77 l-40 -38 l0 -748 l-354 0 l0 55 l322 0 l0 678 l-322 0 l0 39 l346 0 l39 31 l-87 70 Z"></path></symbol><symbol id="m" viewBox="0 -212 1024 1024"><path d="M0 76 l0 -39 l378 0 l0 775 l-378 0 l0 -46 l339 0 l0 -690 l-339 0 Z"></path></symbol><symbol id="n" viewBox="0 -212 1024 1024"><path d="M169 223 l230 221 l-370 368 l-29 -30 l347 -338 l-347 -347 l29 -22 l118 126 l89 -75 l-51 -81 l302 -117 l-169 295 l-59 -81 l-90 81 Z"></path></symbol><symbol id="o" viewBox="0 -212 1024 1024"><path d="M52 502 l48 59 l82 -52 l117 303 l-294 -170 l81 -58 l-55 -59 l-2 2 l-29 -23 l7 -7 l2 -2 l339 -339 l-348 -339 l29 -29 l362 368 l-339 346 Z"></path></symbol><symbol id="p" viewBox="0 -212 1024 1024"><path d="M22 69 l-22 30 l351 341 l-351 351 l22 21 l372 -372 l-372 -371 Z"></path></symbol><symbol id="q" viewBox="0 -212 1024 1024"><path d="M581 115 l0 -64 l-341 0 l-24 -22 l85 -70 l-301 -171 l109 310 l85 -54 l15 31 l0 737 l372 0 l0 -40 l-318 0 l0 -657 l318 0 Z"></path></symbol><symbol id="r" viewBox="0 -212 1024 1024"><path d="M659 -147 l0 -65 l-391 0 l0 773 l-17 15 l-72 -89 l-179 325 l325 -122 l-57 -97 l8 -9 l383 0 l0 -40 l-351 0 l0 -691 l351 0 Z"></path></symbol><symbol id="s" viewBox="0 -212 1024 1024"><path d="M379 67 l0 -47 l-379 0 l0 792 l379 0 l0 -39 l-340 0 l0 -706 l340 0 Z"></path></symbol><symbol id="t" viewBox="0 -212 1024 1024"><path d="M174 454 l337 343 l-21 15 l-360 -358 l190 -199 l-87 -58 l-65 73 l-168 -270 l313 109 l-58 68 l74 65 l161 -155 l21 22 l-337 345 Z"></path></symbol><symbol id="u" viewBox="0 -212 1024 1024"><path d="M44 167 l358 350 l-38 21 l-90 84 l67 76 l-318 114 l181 -304 l54 84 l99 -75 l-357 -350 l372 -379 l30 14 l-358 365 Z"></path></symbol><symbol id="v" viewBox="0 -212 1024 1024"><path d="M371 812 l23 -21 l-348 -357 l348 -356 l-23 -14 l-371 370 l371 378 Z"></path></symbol><symbol id="w" viewBox="0 -212 1024 1024"><path d="M773 16 l-33 40 l-740 0 l0 756 l756 0 l0 -731 l40 -42 l66 90 l162 -341 l-318 147 l67 81 ZM40 96 l659 0 q17 0 17 17 l0 659 l-676 0 l0 -676 Z"></path></symbol><symbol id="x" viewBox="0 -212 1024 1024"><path d="M1009 812 l-146 -323 l-71 81 l-42 -40 l0 -742 l-750 0 l0 750 l725 0 l33 40 l-72 81 l323 153 ZM40 -172 l670 0 l0 670 l-670 0 l0 -670 Z"></path></symbol><symbol id="y" viewBox="0 -212 1024 1024"><path d="M0 60 l767 0 l0 752 l-767 0 l0 -752 ZM42 770 l676 0 l0 -668 l-676 0 l0 668 Z"></path></symbol><symbol id="z" viewBox="0 -212 1024 1024"><path d="M689 -52 l51 60 l-43 48 l0 0 l-319 344 l-345 -344 l-33 43 l337 345 l-337 335 l33 33 l345 -335 l327 335 l43 -41 l-344 -327 l252 -254 l84 -91 l45 -48 l72 89 l151 -352 l-319 160 Z"></path></symbol><symbol id="four" viewBox="0 -212 1024 1024"><path d="M674 652 l331 160 l-141 -325 l-77 58 l-47 -50 l0 0 l-333 -323 l323 -341 l-41 -43 l-315 341 l-333 -341 l-41 43 l331 341 l-331 332 l41 34 l333 -333 l323 333 l47 45 l-70 69 Z"></path></symbol><symbol id="five" viewBox="0 -212 1024 1024"><path d="M382 406 l316 -341 l41 41 l-333 341 l341 324 l-41 41 l-324 -332 l-341 332 l-41 -33 l341 -332 l-341 -341 l41 -41 l341 341 Z"></path></symbol><symbol id="six" viewBox="0 -212 1024 1024"><path d="M929 812 l-861 0 l271 -461 l-102 -85 l-68 85 l-169 -306 l306 122 l-52 85 l92 76 q0 8 -7 8 l160 -284 l430 760 ZM853 781 l-362 -653 l-352 653 l714 0 Z"></path></symbol><symbol id="seven" viewBox="0 -212 1024 1024"><path d="M292 538 l-58 66 l54 57 l-288 151 l121 -311 l76 69 l54 -69 l401 -713 l425 750 l-785 0 ZM660 -137 l-358 645 l706 0 l-348 -645 Z"></path></symbol><symbol id="zero" viewBox="0 -212 1024 1024"><path d="M839 812 l-839 0 l420 -758 l419 758 ZM420 136 l-344 630 l696 0 l-352 -630 Z"></path></symbol><symbol id="one" viewBox="0 -212 1024 1024"><path d="M849 113 q-114 -114 -287 -114 q-184 0 -288 106 l-54 -52 l68 -77 l-288 -152 l137 320 l60 -77 l54 54 q-99 113 -99 281 q0 180 112 294 q114 116 298 116 q173 0 287 -116 q114 -114 114 -294 q0 -183 -114 -289 ZM803 666 q-90 93 -241 93 q-153 0 -251 -93 q-100 -97 -100 -264 q0 -160 100 -258 q98 -100 251 -100 q151 0 241 100 q100 98 100 258 q0 167 -100 264 Z"></path></symbol><symbol id="two" viewBox="0 -212 1024 1024"><path d="M814 -99 q-113 -113 -293 -113 q-175 0 -288 113 q-120 113 -120 293 q0 173 120 286 q16 16 39 23 l-69 69 l-60 -76 l-143 316 l295 -143 l-69 -74 l60 -69 q99 60 235 69 q180 0 293 -115 q113 -113 113 -286 q0 -180 -113 -293 ZM768 450 q-97 92 -247 92 q-145 0 -242 -92 q-99 -97 -99 -256 q0 -166 99 -263 q97 -99 242 -99 q150 0 247 99 q99 97 99 263 q0 159 -99 256 Z"></path></symbol><symbol id="three" viewBox="0 -212 1024 1024"><path d="M409 812 q-182 0 -305 -114 q-104 -113 -104 -288 q0 -182 104 -295 q123 -114 305 -114 q168 0 290 114 q105 113 105 295 q0 175 -105 288 q-122 114 -290 114 ZM151 668 q100 93 258 93 q153 0 244 -93 q98 -97 98 -258 q0 -167 -98 -265 q-91 -100 -244 -100 q-158 0 -258 100 q-98 98 -98 265 q0 161 98 258 Z"></path></symbol><symbol id="nine" viewBox="0 -212 1024 1024"><path d="M424 -39 l251 246 l-251 247 l-253 -247 l253 -246 ZM213 207 l207 206 l207 -206 l-207 -206 l-207 206 ZM450 614 l401 -402 l-425 -425 l-426 425 l411 411 l0 20 l-82 0 l97 169 l97 -169 l-73 0 l0 -29 ZM426 -169 l379 379 l-379 379 l-379 -379 l379 -379 Z"></path></symbol><symbol id="comma" viewBox="0 -212 1024 1024"><path d="M450 628 l413 -409 l-432 -432 l-431 432 l239 238 q0 1 1 3 l-3 -2 l177 180 l0 9 l-76 0 l95 165 l95 -165 l-78 0 l0 -19 ZM468 224 l175 -179 l175 174 l-180 180 l-170 -175 ZM408 224 l-175 180 l-185 -185 l180 -180 l180 185 ZM438 195 l-180 -185 l175 -176 l180 181 l-175 180 ZM607 429 l-174 175 l-169 -169 l174 -180 l169 174 ZM450 628 l413 -409 l-432 -432 l-431 432 l239 238 q0 1 1 3 l-3 -2 l177 180 l0 9 l-76 0 l95 165 l95 -165 l-78 0 l0 -19 ZM468 224 l175 -179 l175 174 l-180 180 l-170 -175 ZM408 224 l-175 180 l-185 -185 l180 -180 l180 185 ZM438 195 l-180 -185 l175 -176 l180 181 l-175 180 ZM607 429 l-174 175 l-169 -169 l174 -180 l169 174 Z"></path></symbol><symbol id="period" viewBox="0 -212 1024 1024"><path d="M446 454 q73 0 114 -40 q43 -40 43 -98 q0 -29 -11 -53 q-11 -25 -32 -42 q-21 -18 -58 -30 q30 -17 46 -44 q16 -25 16 -57 q0 -36 -19 -63 q-17 -28 -48 -42 q-31 -14 -88 -14 l-95 0 l0 202 l-131 0 l0 50 l131 0 l0 231 l132 0 ZM417 18 q50 0 74 19 q23 19 23 53 q0 23 -14 44 q-13 21 -37 30 q-25 9 -75 9 l-27 0 l0 -155 l56 0 ZM388 222 q61 0 86 5 q37 9 57 33 q22 25 22 56 q0 26 -16 48 q-14 22 -38 32 q-26 11 -77 11 l-61 0 l0 -185 l27 0 ZM442 608 l397 -397 l-420 -419 l-419 419 l406 406 l0 28 l-82 0 l95 167 l97 -167 l-74 0 l0 -37 ZM793 211 l-374 374 l-374 -374 l374 -374 l374 374 Z"></path></symbol><symbol id="h" viewBox="0 -212 1024 1024"><path d="M429 -39 l422 429 l-422 422 l-429 -422 l429 -429 ZM804 390 l-375 -383 l-383 383 l383 383 l375 -383 ZM414 159 l238 238 l-238 232 l-224 -232 l224 -238 ZM608 396 l-191 -191 l-183 191 l183 185 l191 -185 Z"></path></symbol><symbol id="g" viewBox="0 -212 1024 1024"><path d="M432 -58 l-196 196 l-228 235 l424 439 l438 -439 l-438 -431 ZM820 379 l-179 177 l-176 -181 l166 -181 l189 185 ZM428 762 l-172 -178 l179 -188 l180 188 l-187 178 ZM61 373 l176 -189 l180 192 l-183 185 l-173 -188 ZM269 155 l163 -164 l180 180 l-164 173 l-179 -189 Z"></path></symbol><symbol id="eight" viewBox="0 -212 1024 1024"><path d="M421 812 l421 -422 l-421 -420 l-421 420 l421 422 ZM797 390 l-376 369 l-378 -369 l378 -377 l376 377 ZM412 145 q52 0 78 9 q36 17 52 52 q18 27 18 61 q0 27 -8 53 q-18 36 -44 44 q34 18 52 36 q15 14 26 34 q10 27 10 62 q0 52 -36 87 q-44 52 -114 52 l-139 0 l0 -235 l-113 0 l0 -44 l113 0 l0 -211 l105 0 ZM350 197 l0 150 l35 0 q53 0 74 -13 q24 -11 37 -25 q20 -19 20 -42 q0 -34 -33 -56 q-19 -14 -71 -14 l-62 0 ZM350 583 l71 0 q52 0 69 -10 q30 -12 46 -34 q16 -19 16 -43 q0 -43 -18 -62 q-18 -26 -61 -34 l-123 0 l0 183 Z"></path></symbol></defs></svg>