<?xml version="1.0" standalone="no"?>
<!DOCTYPE svg PUBLIC "-//W3C//DTD SVG 1.1//EN" "http://www.w3.org/Graphics/SVG/1.1/DTD/svg11.dtd" >
<!--
2013-9-30: Created.
-->
<svg>
<metadata>
Created by iconfont
</metadata>
<defs>

<font id="iconfont" horiz-adv-x="1024" >
  <font-face
    font-family="iconfont"
    font-weight="500"
    font-stretch="normal"
    units-per-em="1024"
    ascent="896"
    descent="-128"
  />
    <missing-glyph />
    
    <glyph glyph-name="x" unicode="x" horiz-adv-x="1001"
d="M281 543q-27 -1 -53 -1h-83q-18 0 -36.5 -6t-32.5 -18.5t-23 -32t-9 -45.5v-76h912v41q0 16 -0.5 30t-0.5 18q0 13 -5 29t-17 29.5t-31.5 22.5t-49.5 9h-133v-97h-438v97zM955 310v-52q0 -23 0.5 -52t0.5 -58t-10.5 -47.5t-26 -30t-33 -16t-31.5 -4.5q-14 -1 -29.5 -0.5
t-29.5 0.5h-32l-45 128h-439l-44 -128h-29h-34q-20 0 -45 1q-25 0 -41 9.5t-25.5 23t-13.5 29.5t-4 30v167h911zM163 247q-12 0 -21 -8.5t-9 -21.5t9 -21.5t21 -8.5q13 0 22 8.5t9 21.5t-9 21.5t-22 8.5zM316 123q-8 -26 -14 -48q-5 -19 -10.5 -37t-7.5 -25t-3 -15t1 -14.5
t9.5 -10.5t21.5 -4h37h67h81h80h64h36q23 0 34 12t2 38q-5 13 -9.5 30.5t-9.5 34.5q-5 19 -11 39h-368zM336 498v228q0 11 2.5 23t10 21.5t20.5 15.5t34 6h188q31 0 51.5 -14.5t20.5 -52.5v-227h-327z" />
    

    
    <glyph glyph-name="qudiaoquanxuan" unicode="&#59013;" d="M901.50462 34.289336 367.438045 34.289336c-67.287499 0-121.822556 54.534034-121.822556 121.822556L245.615489 690.178467C245.615489 757.465966 300.150546 812 367.438045 812l534.066575 0C968.792119 812 1023.327176 757.465966 1023.327176 690.178467L1023.327176 156.111892C1023.327176 88.82337 968.792119 34.289336 901.50462 34.289336zM941.46575 657.033579c0 40.377616-32.726356 73.093738-73.093738 73.093738L400.570653 730.127318c-40.364313 0-73.092715-32.716122-73.092715-73.093738l0-467.778846c0-40.376593 32.726356-73.094762 73.092715-73.094762l467.801359 0c40.364313 0 73.093738 32.718169 73.093738 73.094762L941.46575 657.033579zM818.667983-6.634726c22.603811 0 40.925085-18.345834 40.925085-40.949644s-18.321274-40.924061-40.925085-40.924061L225.153458-88.508431C168.632163-88.508431 122.817722-42.706269 122.817722 13.827305L122.817722 607.329551c0 22.627347 18.321274 40.948621 40.936341 40.948621 22.603811 0 40.925085-18.320251 40.925085-40.948621l0-552.578184c0-33.905204 27.493168-61.386092 61.398372-61.386092L818.667983-6.634726 818.667983-6.634726zM654.933875-129.432493c22.603811 0 40.936341-18.34481 40.936341-40.949644 0-22.603811-18.332531-40.924061-40.936341-40.924061L102.355691-211.306198C45.83542-211.306198 0.020978-165.4805 0.020978-108.970462L0.020978 443.606699c0 22.603811 18.332531 40.925085 40.924061 40.925085 22.61609 0 40.936341-18.321274 40.936341-40.925085l0-511.653099c0-33.905204 27.493168-61.386092 61.398372-61.386092L654.933875-129.432493 654.933875-129.432493z"  horiz-adv-x="1024" />

    
    <glyph glyph-name="shezhi" unicode="&#58900;" d="M645.153114-65.003224l-0.005117 0c-16.247033 0.00614-32.041764 7.158027-42.243103 19.140942-13.897521 16.217357-57.935504 58.393945-93.983511 58.393945-35.798321 0-80.518848-42.423205-93.361341-57.281611-10.17678-11.775184-25.860994-18.811438-41.953508-18.811438-7.667633 0-14.898315 1.568728-21.502733 4.65502l-1.156336 0.539282-109.567441 65.225537-1.088798 0.805342c-19.947308 14.859429-27.538193 43.933605-17.653055 67.620074 0.075725 0.182149 10.105149 24.818245 10.105149 47.28084 0 68.166519-52.104705 123.629715-116.14423 123.629715l-3.885494 0c-0.236384-0.00614-0.472767-0.010233-0.704035-0.010233-18.346857 0-33.283034 17.346063-38.057781 44.191478-0.38067 2.152013-9.347902 53.069683-9.347902 93.190449 0 40.120766 8.967232 91.045599 9.347902 93.194542 4.831029 27.186176 20.094664 44.650943 38.761815 44.181245l3.885494 0c64.039525 0 116.14423 55.464219 116.14423 123.629715 0 22.457478-10.025331 47.089481-10.129708 47.335075-9.870812 23.664979-2.229784 52.733015 17.802458 67.546396l1.133823 0.839111 115.6336 67.610864 1.203408 0.545422c6.514367 2.956332 13.643742 4.451382 21.197788 4.451382 16.058744 0 31.772634-6.877641 42.043558-18.400069 13.687744-15.252379 56.94699-54.921867 91.961458-54.921867 34.682917 0 77.680197 38.884612 91.321892 53.870932 10.211573 11.287067 25.816992 18.047028 41.712007 18.047028 7.707542 0 14.973016-1.551332 21.589714-4.612041l1.171686-0.545422 111.686708-66.045205 1.099031-0.823761c19.981077-14.839986 27.593452-43.913139 17.703197-67.614957-0.075725-0.182149-10.107195-24.819269-10.107195-47.281863 0-68.166519 52.105728-123.629715 116.145254-123.629715l3.885494 0c18.642592 0.444115 33.92567-16.989953 38.760792-44.181245 0.381693-2.148943 9.348925-53.069683 9.348925-93.189426s-8.967232-91.044576-9.354042-93.195565c-4.830005-27.186176-20.113083-44.586474-38.759769-44.181245l-3.8814 0c-64.039525 0-116.145254-55.463196-116.145254-123.629715 0-22.456455 10.027377-47.083341 10.126638-47.328935 9.866718-23.648606 2.24411-52.721759-17.753339-67.552535l-1.12052-0.832971-113.568569-66.815755-1.184989-0.542352C659.768997-63.488731 652.664182-65.003224 645.153114-65.003224M641.704572-8.049071c0.506537-0.353041 1.942235-0.951675 3.448542-0.951675 0.061398 0 0.12075 0 0.169869 0.008186l106.10969 62.421678c-2.561335 6.332219-14.273075 37.07336-14.273075 69.131497 0 95.887884 70.951959 174.473707 159.904896 179.388646 1.281179 7.525394 8.229428 49.860595 8.229428 81.619926 0 31.755238-6.948249 74.072019-8.229428 81.618902-88.952938 4.91801-159.904896 83.499739-159.904896 179.387623 0 32.109302 11.747555 62.887282 14.288424 69.172429l-104.387465 61.73197c-0.119727 0.00614-0.265036 0.01535-0.436952 0.01535-1.777483 0-3.438309-0.689708-3.989871-1.085728-1.752924-1.918699-16.885576-18.248619-38.619576-34.523281-32.17377-24.092721-62.593594-36.309974-90.423429-36.309974-28.101012 0-58.767452 12.456706-91.146906 37.025265-21.869077 16.588817-37.069267 33.235962-38.82526 35.187407-0.556679 0.401136-2.238994 1.112334-4.03285 1.112334-0.13917 0-0.26606-0.00614-0.37146-0.011256l-108.12151-63.212694c2.591011-6.414083 14.259772-37.098943 14.259772-69.101821 0-95.887884-70.952982-174.469614-159.90592-179.387623-1.280156-7.529487-8.228405-49.857525-8.228405-81.618902 0-31.753191 6.948249-74.065879 8.232498-81.614809 88.947821-4.920056 159.900803-83.499739 159.900803-179.387623 0-32.172747-11.793604-63.003939-14.304797-69.209268l102.331643-60.907185c0.066515-0.005117 0.143263-0.005117 0.227174-0.005117 1.496074 0 2.912329 0.579191 3.417843 0.927115 1.915629 2.185782 17.196661 19.404955 39.213094 36.58422 32.81436 25.600051 63.999616 38.579667 92.683912 38.579667 28.959565 0 60.378136-13.226233 93.384877-39.317471C624.44856 11.716088 639.79713-5.825426 641.704572-8.049071M509.29489 219.551624c-85.285408 0-154.670685 73.857125-154.670685 164.642804 0 90.783633 69.385277 164.641781 154.670685 164.641781 85.289502 0 154.681942-73.858148 154.681942-164.641781C663.976832 293.408749 594.584392 219.551624 509.29489 219.551624M509.29489 492.832707c-56.277748 0-102.059444-48.734958-102.059444-108.639303 0-59.905368 45.782719-108.646466 102.059444-108.646466 56.278771 0 102.06763 48.741098 102.06763 108.646466C611.36252 444.098773 565.579801 492.832707 509.29489 492.832707"  horiz-adv-x="1024" />

    
    <glyph glyph-name="yinxiang2xian" unicode="&#59190;" d="M768 896 256 896c-70.4 0-128-57.6-128-128l0-768c0-70.4 57.6-128 128-128l512 0c70.4 0 128 57.6 128 128L896 768C896 838.4 838.4 896 768 896zM832 0c0-35.2-28.8-64-64-64L512-64 256-64c-35.2 0-64 28.8-64 64L192 768c0 35.2 28.8 64 64 64l512 0c35.2 0 64-28.8 64-64L832 0zM512 768c-88 0-160-72-160-160 0-88 72-160 160-160 88 0 160 72 160 160C672 696 600 768 512 768zM512 512c-52.8 0-96 43.2-96 96 0 52.8 43.2 96 96 96 52.8 0 96-43.2 96-96C608 555.2 564.8 512 512 512zM736 160c0 123.2-100.8 224-224 224-123.2 0-224-100.8-224-224 0-123.2 100.8-224 224-224C635.2-64 736 36.8 736 160zM512 0c-88 0-160 72-160 160 0 88 72 160 160 160 88 0 160-72 160-160C672 72 600 0 512 0z"  horiz-adv-x="1024" />

    
    <glyph glyph-name="xuanze1" unicode="&#58893;" d="M798.112 896 225.888 896C101.12 896 0 794.88 0 670.112l0-572.224C0-26.88 101.12-128 225.888-128l572.224 0C922.88-128 1024-26.88 1024 97.888L1024 670.112C1024 794.88 922.88 896 798.112 896zM986.656 118.752c0-115.648-93.76-209.408-209.408-209.408L246.752-90.656c-115.648 0-209.408 93.76-209.408 209.408L37.344 649.248c0 115.648 93.76 209.408 209.408 209.408l530.496 0c115.648 0 209.408-93.76 209.408-209.408L986.656 118.752zM841.056 569.952 788.352 618.976 439.808 248.736 230.72 436.672 182.944 382.848 443.04 149.024 443.936 150.016 444.896 149.12Z"  horiz-adv-x="1024" />

    
    <glyph glyph-name="ip" unicode="&#58882;" d="M512 885.76C234.9056 885.76 10.24 661.0944 10.24 384c0-277.0944 224.6656-501.76 501.76-501.76 277.0944 0 501.76 224.6656 501.76 501.76C1013.76 661.0944 789.0944 885.76 512 885.76zM512-46.08C274.432-46.08 81.92 146.432 81.92 384 81.92 621.568 274.432 814.08 512 814.08c237.568 0 430.08-192.512 430.08-430.08C942.08 146.432 749.568-46.08 512-46.08zM619.52 670.72 512 670.72l-71.68 0 0-72.0896 0-215.04 0-71.68L440.32 97.28l71.68 0L512 312.32l107.52 0c99.0208 0 179.2 80.2816 179.2 179.2C798.72 590.5408 718.5408 670.72 619.52 670.72zM619.52 384 512 384 512 599.04l107.52 0c59.392 0 107.52-48.128 107.52-107.52C727.04 432.128 678.912 384 619.52 384zM296.96 670.72l71.68 0 0-573.44-71.68 0L296.96 670.72z"  horiz-adv-x="1024" />

    
    <glyph glyph-name="jixu" unicode="&#58901;" d="M105.950408-60.603007 105.950408 834.000947l762.893488-442.153212L105.950408-60.603007zM149.643323 757.768729l0-741.247194 632.10128 374.892319L149.643323 757.768729z"  horiz-adv-x="1024" />

    
    <glyph glyph-name="iconfontdayinji" unicode="&#58885;" d="M961.311991 706.498175l-122.069082 0 0 98.345409c0 44.859309-22.860994 91.156417-67.576523 91.156417l-487.844987 0c-44.859309 0-94.319573-46.297108-94.319573-91.156417l0-98.345409-95.326032 0c-44.859309 0-94.175793-46.584667-94.175793-91.300197L0 316.998596c0-44.859309 49.316484-70.73968 94.175793-70.73968l95.326032 0 0-303.806796c0-44.859309 49.460264-70.45212 94.319573-70.45212l487.844987 0c44.859309 0 67.576523 25.592811 67.576523 70.45212L839.242909 246.258916l122.069082 0c44.859309 0 68.582982 26.024151 68.582982 70.73968l0 298.055602C1029.894973 659.913507 1006.1713 706.498175 961.311991 706.498175L961.311991 706.498175zM243.706824 804.843583c0 14.953103 25.161471 38.245437 40.114575 38.245437l487.844987 0c14.953103 0 13.515305-23.292334 13.515305-38.245437l0-98.345409-541.474867 0L243.706824 804.843583 243.706824 804.843583zM785.037911-47.195732c0-14.953103-11.789947-27.893288-26.74305-27.893288l-487.844987 0c-14.953103 0-26.88683 12.796406-26.88683 27.893288L243.563044 354.525133c0 14.953103 11.933726 27.174389 26.88683 27.174389l487.844987 0c14.953103 0 26.74305-12.077506 26.74305-27.174389L785.037911-47.195732 785.037911-47.195732zM974.539736 316.998596c0-14.953103 1.725358-16.678461-13.227745-16.678461l-122.069082 0L839.242909 344.172985c0 44.859309-22.860994 91.587756-67.576523 91.587756l-487.844987 0c-44.859309 0-94.319573-46.728447-94.319573-91.587756l0-43.70907-95.326032 0c-14.953103 0-39.970795 1.725358-39.970795 16.678461l0 298.055602c0 14.953103 25.017692 37.238978 39.970795 37.238978l867.136198 0c14.953103 0 13.227745-22.285875 13.227745-37.238978L974.539736 316.998596 974.539736 316.998596zM974.539736 316.998596M706.821679 261.499579l-379.43499 0c-14.953103 0-27.030609-11.502387-27.030609-26.45549 0-14.953103 12.077506-26.45549 27.030609-26.45549l379.43499 0c14.953103 0 27.030609 11.502387 27.030609 26.45549C733.852289 249.997192 721.774782 261.499579 706.821679 261.499579L706.821679 261.499579zM706.821679 261.499579M706.821679 105.067116l-379.43499 0c-14.953103 0-27.030609-12.077506-27.030609-27.030609 0-14.953103 12.077506-27.030609 27.030609-27.030609l379.43499 0c14.953103 0 27.030609 12.077506 27.030609 27.030609C733.852289 92.98961 721.774782 105.067116 706.821679 105.067116L706.821679 105.067116zM706.821679 105.067116"  horiz-adv-x="1030" />

    
    <glyph glyph-name="kaishi" unicode="&#59286;" d="M409.6 160 710.4 384 409.6 608 409.6 160M512 889.6C236.8 889.6 6.4 659.2 6.4 384c0-275.2 224-505.6 505.6-505.6 275.2 0 505.6 224 505.6 505.6C1017.6 659.2 787.2 889.6 512 889.6L512 889.6zM512-57.6c-243.2 0-441.6 198.4-441.6 441.6 0 243.2 198.4 441.6 441.6 441.6 243.2 0 441.6-198.4 441.6-441.6C953.6 140.8 755.2-57.6 512-57.6L512-57.6z"  horiz-adv-x="1024" />

    
    <glyph glyph-name="chaxun" unicode="&#59697;" d="M945.858292 12.243091l-197.299575 197.498096c118.418017 150.139485 108.424408 368.576473-30.030967 507.151575-149.268652 149.390425-391.271358 149.390425-540.53387 0-149.268652-149.385309-149.268652-391.592676 0-540.983101 138.742924-138.862651 357.600491-148.621922 507.642762-29.332049l197.210547-197.409069c17.400299-17.411555 45.610804-17.411555 63.011102 0C963.258591-33.414785 963.258591-5.17358 945.858292 12.243091zM237.763149 236.922247c-116.092042 116.208699-116.092042 304.622906 0 420.825464 116.092042 116.208699 304.318984 116.208699 420.411025 0 116.098181-116.203582 116.098181-304.616766 0-420.825464C542.082132 120.713548 353.856213 120.713548 237.763149 236.922247z"  horiz-adv-x="1024" />

    
    <glyph glyph-name="download-copy" unicode="&#58886;" d="M544.142 57.046v391.239h-64.286v-391.239l-89.773 89.775-45.454-45.452 167.369-167.369 167.369 167.369-45.454 45.452zM767.039 608.309c-15.538 127.129-123.705 225.691-255.039 225.691s-239.501-98.563-255.039-225.691c-108.828-7.22-194.961-97.559-194.961-208.238 0-115.388 93.54-208.928 208.928-208.928h112.5v64.286h-112.5c-79.761 0-144.642 64.882-144.642 144.642 0 75.773 59.264 139.087 134.944 144.078l53.079 3.547 6.465 52.828c11.803 96.461 93.981 169.191 191.227 169.191s179.423-72.729 191.225-169.189l6.465-52.828 53.078-3.547c75.682-4.992 134.946-68.305 134.946-144.079 0-79.761-64.882-144.642-144.642-144.642h-112.5v-64.286h112.5c115.388 0 208.928 93.54 208.928 208.928 0 110.679-86.133 201.018-194.961 208.238z"  horiz-adv-x="1024" />

    
    <glyph glyph-name="yonghu" unicode="&#58881;" d="M515.541449 888.917101c-280.359429 0-508.458551-228.120391-508.458551-508.458551s228.120391-508.458551 508.458551-508.458551 508.458551 228.120391 508.458551 508.458551S795.900879 888.917101 515.541449 888.917101zM515.541449-85.864196c-257.132626 0-466.301477 209.190121-466.301477 466.322747 0 257.132626 209.168851 466.322747 466.301477 466.322747s466.301477-209.190121 466.301477-466.322747S772.674075-85.864196 515.541449-85.864196zM614.574414 371.822944 614.574414 371.822944c47.751075 31.96876 79.230625 86.398604 79.230625 148.187857 0 98.437405-79.804915 178.24232-178.24232 178.24232-98.437405 0-178.24232-79.804915-178.24232-178.24232 0-61.810523 31.479551-116.219097 79.251895-148.187857-100.266622-39.519598-171.244501-137.170014-171.244501-251.453545 0-0.23397 0-0.446669 0.02127-0.659369 0-0.04254-0.02127-0.10635-0.02127-0.14889 0-15.612155 12.65563-28.246516 28.267786-28.246516 15.590885 0 21.886796 12.63436 21.886796 28.246516 0 0.340319-0.08508 0.659369-0.10635 1.020958 0.10635 118.005774 102.159649 219.995264 220.207964 219.995264 118.112124 0 220.207964-102.095839 220.207964-220.207964 0-0.14889-1.467628-29.054774 21.971875-29.054774 15.505806 0 28.076356 12.57055 28.076356 28.055086 0 0.06381-0.02127 0.12762-0.02127 0.2127 0 0.25524 0.02127 0.510479 0.02127 0.786989C785.797645 234.65293 714.798496 332.303346 614.574414 371.822944zM515.541449 385.265563c-74.402343 0-134.723968 60.321625-134.723968 134.723968 0 74.423613 60.321625 134.723968 134.723968 134.723968 74.423613 0 134.723968-60.321625 134.723968-134.723968S589.943792 385.265563 515.541449 385.265563z"  horiz-adv-x="1024" />

    
    <glyph glyph-name="wangluo" unicode="&#58978;" d="M692.980736 446.486528 527.4112 446.486528l0 78.601216 41.392128 0L568.803328 638.693376 455.196672 638.693376l0-113.605632 41.393152 0 0-78.601216L331.020288 446.486528 331.020288 308.51072 289.62816 308.51072l0-113.606656 113.606656 0L403.234816 308.51072l-41.392128 0L361.842688 415.66208l134.747136 0 0-107.15136-41.393152 0 0-113.606656 113.606656 0L568.803328 308.51072l-41.394176 0L527.409152 415.66208 662.15936 415.66208l0-107.15136-41.393152 0 0-113.606656L734.37184 194.904064 734.37184 308.51072l-41.393152 0L692.980736 446.486528zM372.411392 277.690368l0-51.963904-51.961856 0 0 51.963904L372.411392 277.690368zM537.981952 277.690368l0-51.963904-51.963904 0 0 51.963904L537.981952 277.690368zM486.018048 555.90912l0 51.961856 51.963904 0 0-51.961856L486.018048 555.90912zM703.54944 277.690368l0-51.963904-51.96288 0 0 51.963904L703.54944 277.690368zM895.980544 546.760704c-20.989952 49.626112-51.03616 94.19264-89.304064 132.45952-38.26688 38.267904-82.833408 68.313088-132.45952 89.304064C622.829568 790.259712 568.252416 801.28 512 801.28c-56.252416 0-110.830592-11.020288-162.217984-32.755712-49.626112-20.990976-94.19264-51.03616-132.45952-89.304064s-68.313088-82.833408-89.304064-132.45952C106.283008 495.373312 95.26272 440.795136 95.26272 384.54272c0-56.252416 11.020288-110.829568 32.755712-162.21696 20.990976-49.627136 51.03616-94.19264 89.304064-132.45952 38.267904-38.267904 82.833408-68.314112 132.45952-89.304064 51.387392-21.735424 105.964544-32.755712 162.217984-32.755712 56.252416 0 110.829568 11.021312 162.21696 32.755712 49.627136 20.989952 94.19264 51.03616 132.45952 89.304064 38.267904 38.26688 68.314112 82.833408 89.304064 132.45952 21.735424 51.387392 32.755712 105.964544 32.755712 162.21696C928.73728 440.795136 917.715968 495.373312 895.980544 546.760704zM512-1.473536c-212.850688 0-386.01728 173.165568-386.01728 386.01728 0 212.850688 173.166592 386.01728 386.01728 386.01728 212.850688 0 386.01728-173.166592 386.01728-386.01728C898.01728 171.692032 724.850688-1.473536 512-1.473536z"  horiz-adv-x="1024" />

    
    <glyph glyph-name="quanxuan" unicode="&#58953;" d="M901.50462 118.289336H367.438045c-67.287499 0-121.822556 54.534034-121.822556 121.822556V774.178467C245.615489 841.465966 300.150546 896 367.438045 896h534.066575C968.792119 896 1023.327176 841.465966 1023.327176 774.178467V240.111892c0-67.288522-54.535057-121.822556-121.822556-121.822556z m39.96113 622.744243c0 40.377616-32.727379 73.093738-73.093738 73.093739H400.570653c-40.365336 0-73.092715-32.716122-73.092715-73.093739v-467.778846c0-40.376593 32.727379-73.093738 73.092715-73.093738h467.801359c40.365336 0 73.093738 32.717146 73.093738 73.093738V741.033579zM601.802794 355.20007c-4.925173-4.925173-11.17041-7.327896-17.571191-8.184403-11.683087-6.495948-26.469861-5.234211-36.380582 4.66423L417.606655 481.92324c-11.992125 11.992125-11.992125 31.43085 0 43.422975l14.466479 14.46648c11.992125 11.992125 31.43085 11.992125 43.422976 0L573.072449 442.236356l216.865189 216.852909c11.979846 11.992125 31.431873 11.992125 43.411719 0l14.477736-14.466479c11.979846-11.992125 11.979846-31.43085 0-43.422975L601.802794 355.20007zM818.667983 77.365274c22.603811 0 40.925085-18.345834 40.925085-40.949644s-18.321274-40.924061-40.925085-40.924061H225.153458C168.632163-4.508431 122.817722 41.293731 122.817722 97.827305V691.329551c0 22.627347 18.321274 40.948621 40.936341 40.94862 22.603811 0 40.925085-18.320251 40.925085-40.94862v-552.578184c0-33.905204 27.493168-61.386092 61.398371-61.386093h552.590464zM654.933875-45.432493c22.603811 0 40.936341-18.34481 40.936341-40.949644 0-22.603811-18.332531-40.924061-40.936341-40.924061H102.355691C45.83542-127.306198 0.020978-81.4805 0.020978-24.970462V527.606699c0 22.603811 18.332531 40.925085 40.924061 40.925084 22.61609 0 40.936341-18.321274 40.936341-40.925084v-511.6531c0-33.905204 27.493168-61.386092 61.398372-61.386092h511.654123z"  horiz-adv-x="1024" />

    
    <glyph glyph-name="cancel" unicode="&#58888;" d="M512 883.2A499.2 499.2 0 0 1 12.8 384 499.2 499.2 0 0 1 512-115.2 499.2 499.2 0 0 1 1011.264 384 499.2 499.2 0 0 1 512 883.2z m0-934.4A435.136 435.136 0 0 0 76.8 384 435.2 435.2 0 0 0 512 819.2 435.2 435.2 0 0 0 947.2 384c0-240.448-194.816-435.2-435.2-435.2z m194.56 573.76L567.872 383.808l138.56-138.56a39.68 39.68 0 0 0 0-56 39.744 39.744 0 0 0-56.064 0L511.872 327.808 373.44 189.44a39.744 39.744 0 0 0-56.064 0 39.68 39.68 0 0 0 0 56l138.368 138.368-138.496 138.56a39.744 39.744 0 0 0 0 56.064 39.744 39.744 0 0 0 56.064 0l138.56-138.56 138.688 138.688a39.616 39.616 0 0 0 56-56z"  horiz-adv-x="1024" />

    
    <glyph glyph-name="baocun" unicode="&#58906;" d="M800.576-43.56h-577.152c-79.080 0-143.424 64.296-143.424 143.4v568.296c0 79.104 64.344 143.448 143.424 143.448h577.176c79.056-0.024 143.4-64.344 143.4-143.448v-568.296c0-79.104-64.32-143.4-143.424-143.4v0zM223.424 755.592c-48.24 0-87.48-39.216-87.48-87.48v-568.272c0-48.24 39.24-87.504 87.48-87.504h577.176c48.24 0 87.48 39.264 87.48 87.504v568.296c0 48.264-39.24 87.48-87.48 87.48l-577.176-0.024zM788.6 382.656h-553.2v428.904h553.224v-428.904h-0.024zM291.32 438.624h441.36v316.968h-441.36v-316.968zM594.368 673.272h55.92v-186.504h-55.92v186.504zM594.368 673.272z"  horiz-adv-x="1024" />

    
    <glyph glyph-name="help" unicode="&#59091;" d="M512.018-63.558c-246.923 0-447.806 200.883-447.806 447.806s200.883 447.806 447.806 447.806 447.806-200.883 447.806-447.806-200.883-447.806-447.806-447.806zM512.018 798.203c-228.254 0-413.955-185.702-413.955-413.955s185.702-413.955 413.955-413.955 413.955 185.702 413.955 413.955-185.701 413.955-413.955 413.955zM521.068 237.886c-8.297 0-15.035 6.737-15.035 15.035 0 54.87 30.748 105.168 82.259 134.54 39.321 22.414 62.965 63.002 61.699 105.884-1.836 62.58-58.009 114.898-125.215 116.642-36.586 1.285-71.795-12.575-96.963-37.1-23.038-22.451-35.723-51.896-35.723-82.938 0-8.297-6.737-15.035-15.035-15.035-8.297 0-15.035 6.737-15.035 15.035 0 39.229 15.916 76.329 44.81 104.489 30.932 30.143 74.163 46.774 118.716 45.618 82.901-2.148 152.2-67.573 154.513-145.83 1.579-54.025-27.866-104.948-76.862-132.906-42.020-23.938-67.096-64.471-67.096-108.399 0.002-8.298-6.735-15.035-15.033-15.035zM521.068 133.984c-10.39 0-18.798 8.408-18.798 18.798v17.237c0 10.39 8.408 18.798 18.798 18.798s18.798-8.408 18.798-18.798v-17.237c0-10.391-8.408-18.798-18.798-18.798z"  horiz-adv-x="1024" />

    
    <glyph glyph-name="shezhi1" unicode="&#58883;" d="M512 198.4c102.4 0 182.4 83.2 182.4 185.6 0 102.4-83.2 185.6-182.4 185.6-102.4 0-182.4-83.2-182.4-185.6 0-102.4 83.2-185.6 182.4-185.6z m0 51.2c-73.6 0-134.4 60.8-134.4 134.4 0 73.6 60.8 134.4 134.4 134.4 73.6 0 134.4-60.8 134.4-134.4 0-73.6-60.8-134.4-134.4-134.4zM249.015 52.821c35.2-28.8 73.6-51.2 112-67.2 41.6 38.4 96 60.8 150.4 60.8 57.6 0 108.8-22.4 150.4-60.8 41.6 16 80 38.4 112 67.2-12.8 54.4-3.2 112 22.4 163.2 28.8 48 73.6 86.4 128 102.4 3.2 22.4 6.4 44.8 6.4 67.2 0 22.4-3.2 44.8-6.4 67.2-54.4 16-99.2 54.4-128 102.4-28.8 48-35.2 108.8-22.4 163.2-35.2 28.8-73.6 51.2-112 67.2-41.6-38.4-92.8-60.8-150.4-60.8-54.4 0-108.8 22.4-150.4 60.8-41.6-16-80-38.4-112-67.2 12.8-54.4 3.2-112-22.4-163.2-28.8-48-73.6-86.4-128-102.4-3.2-22.4-6.4-44.8-6.4-67.2 0-22.4 3.2-44.8 6.4-67.2 54.4-16 99.2-54.4 128-102.4 25.6-51.2 35.2-108.8 22.4-163.2m112-115.2c-54.4 19.2-105.6 48-150.4 89.6-6.4 6.4-9.6 16-6.4 22.4 16 48 9.6 99.2-16 140.8-25.6 44.8-64 73.6-112 83.2-9.6 3.2-16 9.6-16 19.2-6.4 28.8-9.6 60.8-9.6 89.6 0 28.8 3.2 57.6 9.6 89.6 3.2 9.6 9.6 16 16 19.2 48 12.8 89.6 41.6 112 83.2 25.6 44.8 28.8 92.8 16 140.8-3.2 9.6 0 19.2 6.4 22.4 44.8 38.4 96 67.2 150.4 89.6 9.6 3.2 16 0 22.4-6.4 35.2-35.2 80-57.6 128-57.6s96 19.2 128 57.6c6.4 6.4 16 9.6 22.4 6.4 54.4-19.2 105.6-48 150.4-89.6 6.4-6.4 9.6-16 6.4-22.4-16-48-9.6-99.2 16-140.8 25.6-44.8 64-73.6 112-83.2 9.6-3.2 16-9.6 16-19.2 6.4-28.8 9.6-60.8 9.6-89.6 0-28.8-3.2-57.6-9.6-89.6-3.2-9.6-9.6-16-16-19.2-48-12.8-89.6-41.6-112-83.2-25.6-44.8-28.8-92.8-16-140.8 3.2-9.6 0-19.2-6.4-22.4-44.8-38.4-96-67.2-150.4-89.6-9.6-3.2-16 0-22.4 6.4-35.2 35.2-80 57.6-128 57.6s-96-19.2-128-57.6c-3.2-3.2-9.6-6.4-16-6.4h-6.4z"  horiz-adv-x="1024" />

    
    <glyph glyph-name="xuanze2" unicode="&#58945;" d="M509.188 879.392C233.995 879.392 10.9 656.312 10.9 381.118c0-275.212 223.094-498.276 498.288-498.276 275.165 0 498.259 223.064 498.259 498.276 0 275.194-223.094 498.274-498.259 498.274zM801.27 528.625l-310.56-310.53c-6.835-6.867-15.826-10.27-24.786-10.27-8.99 0-17.98 3.403-24.847 10.27L243.483 415.674c-13.734 13.688-13.734 35.928 0 49.648 13.705 13.72 35.9 13.72 49.635 0l172.806-172.714 285.651 285.651c13.737 13.72 35.961 13.72 49.695 0 13.674-13.718 13.674-35.93 0-49.633z"  horiz-adv-x="1024" />

    
    <glyph glyph-name="tubiaozhexiantu" unicode="&#58922;" d="M928.256 54.784h-803.328v253.44l171.52 171.52c11.264-5.12 23.552-8.192 36.864-8.192 13.312 0 25.6 3.072 36.864 8.192l120.32-120.32c-5.12-11.264-8.192-23.552-8.192-36.864 0-49.152 39.936-89.088 89.088-89.088s89.088 39.936 89.088 89.088c0 13.312-3.072 25.6-8.192 36.864l295.424 295.424c12.8 12.8 12.8 33.792 0 46.592s-33.792 12.8-46.592 0l-295.936-295.936c-10.24 4.096-22.016 6.656-33.792 6.656s-23.552-2.56-33.792-6.656l-121.344 121.856c4.096 10.24 6.656 22.016 6.656 33.792 0 49.152-39.936 89.088-89.088 89.088s-89.088-39.936-89.088-89.088c0-11.776 2.56-23.552 6.656-33.792l-125.952-125.952v338.432c0 16.384-13.312 29.696-29.696 29.696-16.384 0-29.696-13.312-29.696-29.696V332.288c-1.024-4.096-1.024-8.192 0-11.776V25.088c0-16.384 13.312-29.696 29.696-29.696h833.024c16.384 0 29.696 13.312 29.696 29.696-0.512 16.384-13.824 29.696-30.208 29.696z m-356.864 297.472c16.384 0 29.696-13.312 29.696-29.696s-13.312-29.696-29.696-29.696c-16.384 0-29.696 13.312-29.696 29.696s13.312 29.696 29.696 29.696z m-238.08 238.08c16.384 0 29.696-13.312 29.696-29.696s-13.312-29.696-29.696-29.696c-16.384 0-29.696 13.312-29.696 29.696s13.312 29.696 29.696 29.696z"  horiz-adv-x="1024" />

    
    <glyph glyph-name="banzhuren" unicode="&#58896;" d="M904.529468-38.845469l-8.027557-14.960446H118.193798l0.486519 22.744744c0.851408 42.935265 5.473334 101.074237 21.041929 158.118541 16.055113 58.74712 43.786673 116.277943 90.978976 155.807578l6.81126 5.473334 8.757335-0.121629 103.26357 0.973037V242.848794l-94.506236 0.729778c-35.394227-32.596745-57.044305-79.545789-70.301936-127.954389-11.919705-43.543414-16.906521-88.059865-18.852595-125.035277l692.437582 0.12163c1.216296 42.083858-11.554816 91.952013-27.123412 138.657798-15.811854 47.070673-38.313339 87.208457-65.31512 114.940016h-107.885497V289.06806h123.332462l9.487112-3.040741c36.124005-32.596745 65.43675-85.748901 84.654235-143.036465 19.947262-59.720157 34.907709-130.265352 29.069486-181.836323z m-385.444353 59.598528l-61.666231 44.75971 40.016154 155.0778-15.082076 23.96104 1.216296 24.569189c28.826226 1.459556 37.218672 1.459556 66.044899 0l1.216296-24.569189-15.203706-23.96104 45.246229-154.956171-61.787861-44.881339z m178.552323 449.664805c-15.811854-52.787267-37.461931-92.316902-66.409788-121.629647-31.13719-31.623708-70.180306-50.476304-119.197054-60.449935l-4.013778-0.729777-3.892149 0.608148c-44.273192 7.176149-83.316308 25.298967-115.791424 57.165934-29.799264 29.191115-53.638674 69.937047-70.301936 124.06224-13.86578 7.297779-24.325929 19.460744-31.380449 35.637487-7.784297 17.879558-11.311557 41.23245-10.946669 68.84238l0.12163 10.703409 9.243853 5.959853c3.162371 2.067704 6.324742 3.892149 9.365483 5.473334-13.987409 83.073049-10.33852 153.861504 41.718969 200.932177 41.47571 29.069486 114.210239 9.243853 180.984915 18.852595 190.350398 27.4883 189.012472-65.43675 207.986697-223.190402 1.094667-0.608148 2.189334-1.337926 3.284-2.067704l9.243854-6.081483 0.121629-10.703409c0.486519-27.123411-2.919112-49.989785-10.460149-67.747713-6.324742-16.055113-16.298373-28.218078-29.677634-35.637487z m-22.866374 82.95142l-2.919112 9.365483-6.203112-0.364889-3.527259 18.001187c-2.797482 14.109039-6.93289 86.721938-12.527854 98.641644-16.420002-6.689631-34.907709 5.594964-51.57097 14.838817l-8.514076-25.420596-13.62252 1.702815 1.824444 15.446965-14.352298-22.014966-12.771113 2.432593 12.649483 32.840005c-67.382825-45.002969-183.417508-42.692006-198.742843-22.623115-2.310963-2.919112-2.797482-6.93289-4.135408-10.460149-3.162371-12.162965-6.689631-87.573346-9.852002-99.614681l-0.851407-4.500297-0.364889 0.121629c-0.729778-2.432593-1.337926-4.621927-1.946074-6.446371-5.716593 3.648889-17.39304 0.729778-27.974819-0.729778 0.973037-13.379261 3.284-24.690818 7.176149-33.448153 3.892149-9.000594 9.122224-14.717187 15.811854-16.784891l11.433187-3.40563 3.040741-11.068298c14.717187-51.935859 35.880746-89.64105 62.396009-115.669795 24.690818-24.2043 54.368452-38.434969 88.059865-44.51645 38.313339 8.392446 68.720751 23.352892 92.681791 47.557192 25.420596 25.785485 44.273192 62.396009 58.50386 113.115571l2.919112 10.58178 10.825038 3.648889c6.568001 2.189334 11.798076 8.149186 15.568595 17.028151 3.648889 8.757335 5.959853 19.825632 6.93289 32.840005-6.324742-0.12163-12.649483-0.243259-19.947262-1.094667z"  horiz-adv-x="1024" />

    
    <glyph glyph-name="lishi" unicode="&#58943;" d="M704 415.998H544V640.002C544 657.669 529.672 672 512 672c-17.673 0-32-14.331-32-31.999v-256.004c0-17.671 14.327-32 32-32h192c17.672 0 32 14.329 32 32 0 17.674-14.328 32.001-32 32.001zM512 896C229.23 896 0 666.77 0 383.998 0 101.23 229.23-128 512-128s512 229.23 512 511.998C1024 666.77 794.77 896 512 896z m0-960C264.577-64 64 136.577 64 383.998 64 631.423 264.577 831.997 512 831.997c247.424 0 448-200.574 448-447.999C960 136.577 759.424-64 512-64z"  horiz-adv-x="1024" />

    
    <glyph glyph-name="jinru" unicode="&#59120;" d="M56.32 378.88c0-254.293333 206.506667-460.8 460.8-460.8s460.8 206.506667 460.8 460.8-206.506667 460.8-460.8 460.8-460.8-206.506667-460.8-460.8z m484.693333 259.413333l237.226667-235.52c6.826667-6.826667 10.24-15.36 10.24-23.893333s-3.413333-17.066667-10.24-23.893333L541.013333 119.466667c-13.653333-13.653333-34.133333-13.653333-46.08 0-13.653333 13.653333-13.653333 34.133333 0 46.08l180.906667 179.2H278.186667c-18.773333 0-32.426667 15.36-32.426667 32.426666 0 18.773333 15.36 32.426667 32.426667 32.426667h395.946666L494.933333 592.213333c-13.653333 13.653333-13.653333 34.133333 0 46.08 11.946667 13.653333 34.133333 13.653333 46.08 0z"  horiz-adv-x="1024" />

    
    <glyph glyph-name="jilu" unicode="&#58884;" d="M518.825 343.469l282.444 282.467c28.438 28.415 74.517 28.415 102.953 0l25.717-25.716c28.393-28.415 28.393-74.517 0-102.909L647.45 214.821l-206.227-74.245m62.453 59.981l123.817 46.102 6.939 6.94-77.193 77.193-7.03-7.007-46.534-123.228z m79.281 155.953l77.193-77.194 192.416 192.439-77.194 77.17L582.957 356.51z m321.404 218.471l-25.717 25.739c-14.197 14.172-37.281 14.196-51.477 0l-26.08-26.079 77.194-77.148 26.079 26.033c14.196 14.196 14.196 37.283 0 51.455zM550.844 689.819v-133.523c0-20.092 16.329-36.397 36.42-36.397h56.375l-36.374-36.352h-20.002c-40.23 0-72.795 32.564-72.795 72.748V720.046H186.987c-20.092 0-36.374-16.305-36.374-36.397v-691.313c0-20.092 16.282-36.397 36.374-36.397H696.43c20.07 0 36.353 16.305 36.353 36.397V248.837l34.333 36.375v-292.875c0-40.185-30.523-72.795-70.686-72.795H186.987c-40.185 0-68.711 32.61-68.711 72.795V683.65c0 40.207 28.528 70.753 68.711 70.753h352.29l164.138-174.727-25.444-25.444L550.842 689.82z m0 0zM198.102 62.548h489.495v-42.832H198.102v42.832zM198.102 238.148H442.85v-42.564H198.102v42.564zM198.102 400.784H442.85v-42.542H198.102v42.542zM198.102 569.091H442.85v-42.564H198.102v42.564z"  horiz-adv-x="1024" />

    
    <glyph glyph-name="class" unicode="&#58946;" d="M513.3 830.592c-245.616 0-444.727-199.11-444.727-444.726s199.111-444.727 444.727-444.727c245.617 0 444.728 199.112 444.728 444.727s-199.11 444.726-444.728 444.726zM461.787 537.587h31.93v-46.444c-0.325-69.992-10.327-121.599-29.995-154.815l-24.673 21.772c14.831 27.736 22.413 72.085 22.738 133.043v46.444zM292.459 239.085c18.059 4.188 38.704 9.834 61.926 16.933v138.367h-50.798v31.929h50.798v122.4h-55.152v32.414h142.236v-32.414h-53.218v-122.4h46.928v-31.929h-46.928v-125.786c17.734 6.772 36.768 15.315 57.087 25.642v-34.834c-42.574-20.319-90.795-38.054-144.654-53.218l-8.224 32.898zM559.996 401.641c-1.293-103.532-35.158-179.004-101.596-226.416l-25.641 22.738c61.6 42.248 92.888 110.138 93.856 203.678v218.191h33.381v-218.191zM734.646 194.093h-168.844v32.414h68.699v159.652h-47.895v31.93h47.895v134.978h-47.895v31.93h141.268v-31.93h-59.508v-134.978h52.25v-31.93h-52.25v-159.652h66.28v-32.414z"  horiz-adv-x="1024" />

    
    <glyph glyph-name="shezhi2" unicode="&#58904;" d="M661.63712-21.73952c-16.27648 0.00512-32.10752 6.72768-42.3168 18.00704-13.92128 15.26272-58.03008 54.95296-94.14144 54.95296-35.85536 0-80.64512-39.92064-93.51168-53.89824-10.19392-11.08992-25.90208-17.69984-42.01984-17.69984-7.68 0-14.9248 1.46944-21.53984 4.37248l-1.15712 0.50688-109.7472 61.36832-1.09056 0.76288c-19.97312 13.98272-27.57632 41.344-17.67936 63.63648 0.0768 0.16384 10.12736 23.35232 10.12736 44.48768 0 64.13824-52.18816 116.33664-116.33664 116.33664h-3.88608l-0.70656-0.01536c-18.37568 0-33.33632 16.32256-38.12352 41.58976-0.37888 2.0224-9.35936 49.93536-9.35936 87.68512 0 37.75488 8.97536 85.67296 9.35936 87.69536 4.8384 25.58464 20.12672 42.01472 38.82496 41.5744h3.8912c64.14336 0 116.33664 52.18816 116.33664 116.33152 0 21.13024-10.04032 44.3136-10.14784 44.544-9.89184 22.26688-2.23744 49.61792 17.83296 63.55968l1.13664 0.78848 115.8144 63.62624 1.20832 0.512c6.52288 2.78016 13.66528 4.18816 21.23264 4.18816 16.08704 0 31.8208-6.47168 42.112-17.31584 13.71136-14.35136 57.0368-51.68128 92.11392-51.68128 34.7392 0 77.80352 36.59264 91.4688 50.69312 10.22976 10.61888 25.86112 16.98304 41.7792 16.98304 7.72096 0 14.99648-1.46432 21.632-4.34176l1.17248-0.512 111.86176-62.14656 1.11104-0.77312c20.01408-13.96736 27.63264-41.32352 17.73056-63.62624-0.07168-0.16896-10.12736-23.35744-10.12736-44.4928 0-64.14336 52.18816-116.33152 116.33664-116.33152h3.8912c18.67776 0.41472 33.98144-15.98976 38.82496-41.5744 0.384-2.02752 9.35936-49.93536 9.35936-87.69024s-8.97536-85.67296-9.36448-87.69024c-4.8384-25.58464-20.1472-41.95328-38.82496-41.56928h-3.88608c-64.14336 0-116.33664-52.19328-116.33664-116.34176 0-21.13024 10.04544-44.30336 10.14272-44.53376 9.8816-22.25664 2.24256-49.6128-17.792-63.5648l-1.11616-0.78848-113.75616-62.86848-1.18272-0.512c-6.51776-2.816-13.62944-4.23424-21.15072-4.23424z m-3.456 53.59104c0.512-0.32768 1.95072-0.896 3.456-0.896l0.17408 0.00512 106.27584 58.74176c-2.56512 5.95456-14.29504 34.88256-14.29504 65.0496 0 90.22976 71.0656 164.17792 160.16896 168.80128 1.28 7.08096 8.23808 46.91968 8.23808 76.8s-6.95808 69.69856-8.23808 76.8c-89.09824 4.62848-160.16896 78.57152-160.16896 168.80128 0 30.21312 11.77088 59.17696 14.3104 65.09056l-104.55552 58.0864c-0.11776 0.00512-0.27136 0.01536-0.44032 0.01536-1.78176 0-3.44576-0.65024-3.9936-1.024-1.76128-1.80736-16.91136-17.17248-38.6816-32.4864-32.2304-22.66624-62.69952-34.16576-90.57792-34.16576-28.13952 0-58.85952 11.7248-91.2896 34.8416-21.90336 15.61088-37.13024 31.27296-38.89152 33.11104-0.55808 0.37888-2.24256 1.04448-4.03968 1.04448a7.9872 7.9872 0 0 1-0.37376-0.01024L286.96064 710.97856c2.59584-6.03136 14.2848-34.90816 14.2848-65.024 0-90.22464-71.0656-164.1728-160.16896-168.80128-1.28-7.08608-8.23808-46.91456-8.23808-76.8 0-29.88032 6.95808-69.69856 8.24832-76.79488 89.09312-4.62848 160.15872-78.58176 160.15872-168.8064 0-30.27456-11.81184-59.28448-14.32576-65.1264l102.5024-57.31328c0.06144-0.01024 0.14336-0.01024 0.2304-0.01024 1.49504 0 2.91328 0.54784 3.42016 0.87552 1.92 2.05824 17.22368 18.26304 39.27552 34.432 32.86528 24.0896 64.1024 36.3008 92.83072 36.3008 29.00992 0 60.48256-12.44672 93.5424-36.99712 22.17984-16.4608 37.55008-32.9728 39.45984-35.06176z m-132.62336 214.16448c-85.4272 0-154.92608 69.504-154.92608 154.92608 0 85.4272 69.49888 154.92608 154.92608 154.92608 85.4272 0 154.9312-69.49888 154.9312-154.92608 0-85.42208-69.50912-154.92608-154.9312-154.92608z m0 257.15712c-56.3712 0-102.22592-45.85984-102.22592-102.22592 0-56.37632 45.85984-102.23616 102.22592-102.23616s102.23104 45.85984 102.23104 102.23616c0 56.36608-45.85984 102.22592-102.23104 102.22592z"  horiz-adv-x="1024" />

    
    <glyph glyph-name="zanwushuju1" unicode="&#58891;" d="M122.919157 680.363453h46.057111v-13.955183h-46.057111v13.955183zM139.399291 699.24694h13.046773v-53.224252h-13.046773v53.224252z m604.736519 177.776586h46.014193v-13.919419h-46.228779l0.214586 13.919419zM760.458581 895.992847h13.03962v-53.302934h-13.03962v53.302934z m167.991506-327.213635h46.021347v-13.919419h-46.021347v13.919419zM944.937374 587.870131h13.046773v-53.260016h-13.046773v53.260016z m-716.571109-529.889242V607.755015c0 43.53216 32.187762 78.981615 71.785862 78.981615h500.140598c39.555183 0 71.785862-35.413691 71.785862-78.981615v-549.774126h13.046773V607.755015c0 51.235764-38.067393 92.901034-84.832635 92.901034H300.10921c-46.758089 0-84.825482-41.66527-84.825482-92.901034v-549.774126h13.082537zM221.828573 536.01207h659.813356v-13.919418H221.828573v13.919418z m79.77558 38.932887a34.305001 34.305001 0 0 0-27.316681 57.651858 34.290696 34.290696 0 1 0 59.339927-23.439844 33.153395 33.153395 0 0 0-32.023246-34.212014z m0 54.468846a20.299749 20.299749 0 1 1 18.883487-20.292596 19.670299 19.670299 0 0 1-18.883487 20.292596z m79.811344-55.870802a34.247779 34.247779 0 1 0 32.023246 34.212014 33.139089 33.139089 0 0 0-32.023246-34.212014z m0 54.461693a20.285443 20.285443 0 0 1-16.129646-34.12618 20.285443 20.285443 0 0 1 35.106119 13.876501 19.670299 19.670299 0 0 1-18.976473 20.249679z m77.579659-55.877955a34.297849 34.297849 0 1 0 32.016094 34.219168 33.131936 33.131936 0 0 0-32.016094-34.219168z m0 54.468846a20.285443 20.285443 0 0 1-16.258396-34.083263 20.32836 20.32836 0 0 1 22.288236-5.049902 20.306901 20.306901 0 0 1 12.846494 18.883487 19.663146 19.663146 0 0 1-18.883487 20.421346v-0.171668h0.007153z m97.378709-16.565968h233.22537v-13.919419H556.330948l0.042917 13.919419z m-144.272702-324.817435c0-19.913495 13.754904-36.021682 30.699972-36.021682 16.937916 0 30.692819 16.151104 30.692819 36.021682 0 19.892037-13.754904 36.043141-30.692819 36.043141-16.937916 0-30.699972-16.115339-30.699972-36.043141z m208.68399-6.38033c0-19.913495 13.747751-36.028835 30.685666-36.028834 16.945068 0 30.699972 16.151104 30.699972 36.028834 0 19.884884-13.754904 36.043141-30.699972 36.043141-16.937916 0-30.685666-16.272702-30.685666-36.043141z m-181.338698-176.560603l-9.241464 9.842302c71.320928 76.149092 186.638949 76.878681 257.05862 1.652305l-9.241464-9.842302c-65.283934 69.790221-172.34043 69.039173-238.575692-1.652305z m572.756189-96.506063c-91.584912 26.451187-197.08209-0.336183-279.625817-73.652752h20.957809c78.23772 63.123778 174.872534 84.818329 258.625091 59.175412v14.470187h0.042917v0.007153z m-707.243811-63.846214h17.595976a288.881587 288.881587 0 0 1-80.562391 68.302431c-71.113495 40.806929-156.52551 52.237161-240.442582 31.865884l2.896898-13.590388c80.855658 19.641688 163.034591 8.819447 231.379939-30.528304a277.487119 277.487119 0 0 0 69.13216-56.049623z m174.286001-24.047835c-31.801509 51.922436-103.544454 62.122381-159.422408 23.096508l-7.124225 11.680581c62.129533 43.367645 141.740598 31.186365 177.490472-27.173624l-10.943839-7.603465zM482.227567-82.715395l-8.483263 10.471752c88.130092 81.842749 209.413579 87.600782 270.391506 12.846493l-9.863761-9.141324c-56.249902 68.996256-169.279016 62.615926-252.001565-14.169769H482.227567v-0.007152z m-206.638279-17.109584h7.832356a129.065773 129.065773 0 0 1-35.871473 30.399553 144.937916 144.937916 0 0 1-107.070802 14.169768l1.287511-6.051299a139.6019 139.6019 0 0 0 103.050908-13.590389 123.572395 123.572395 0 0 0 30.7715-24.856105v-0.071528zM354.950003-113.694328a45.184465 45.184465 0 0 1-32.509639 21.122325 58.681866 58.681866 0 0 1-42.04437-10.679184l-7.124225 11.673428a70.934674 70.934674 0 0 0 50.985415 12.803576 58.05957 58.05957 0 0 0 41.794021-27.295222l-10.936686-7.61777h-0.164516v-0.007153zM275.174424-93.602012h8.039787a129.030008 129.030008 0 0 1-35.871472 30.399553 145.045208 145.045208 0 0 1-107.070802 14.155463l1.28751-6.029841a139.630511 139.630511 0 0 0 103.050909-13.583236 124.838446 124.838446 0 0 0 30.564068-24.941939z m595.545124 58.925063c-33.153395 1.444873-71.542666-15.364292-101.942218-48.253031l9.284381-9.770774c27.56703 29.827326 62.129533 45.320369 91.363174 44.247443l1.294663 13.776362z"  horiz-adv-x="1024" />

    
    <glyph glyph-name="zanwushuju2" unicode="&#58950;" d="M512-97.425c-267.221 0-484.625 217.404-484.625 484.625S244.779 871.825 512 871.825 996.625 654.421 996.625 387.2 779.221-97.425 512-97.425z m0 945.067c-253.884 0-460.442-206.549-460.442-460.442 0-253.884 206.558-460.442 460.442-460.442S972.442 133.316 972.442 387.2c0 253.884-206.558 460.442-460.442 460.442zM388.267 504.533c0-23.564-19.103-42.667-42.667-42.667s-42.667 19.103-42.667 42.667S322.036 547.2 345.6 547.2s42.667-19.103 42.667-42.667zM721.067 504.533c0-23.564-19.103-42.667-42.667-42.667s-42.667 19.103-42.667 42.667S654.836 547.2 678.4 547.2s42.667-19.103 42.667-42.667zM691.763 159.044c-48.649 51.977-112.981 80.597-181.137 80.597-66.807 0-130.21-27.648-178.517-77.841l-17.434 16.768c52.915 54.98 122.496 85.257 195.951 85.257 74.914 0 145.519-31.343 198.801-88.252l-17.664-16.529z"  horiz-adv-x="1024" />

    
    <glyph glyph-name="zhuangtai" unicode="&#58933;" d="M542.72-114.346667c-6.826667-10.24-20.48-13.653333-30.72-13.653333-23.893333 0-40.96 17.066667-44.373333 37.546667l-47.786667 307.2h-204.8c-20.48 0-37.546667 13.653333-44.373333 34.133333-3.413333 13.653333-20.48 116.053333 95.573333 184.32 3.413333 0 3.413333 3.413333 6.826667 3.413333 3.413333 3.413333 10.24 6.826667 13.653333 10.24 23.893333 17.066667 40.96 68.266667 47.786667 122.88 3.413333 54.613333-6.826667 102.4-27.306667 122.88-3.413333 3.413333-6.826667 10.24-13.653333 13.653334-17.066667 17.066667-47.786667 44.373333-47.786667 88.746666C245.76 848.213333 283.306667 889.173333 334.506667 896h344.746666c27.306667 0 51.2-10.24 71.68-27.306667 20.48-17.066667 30.72-44.373333 30.72-68.266666 0-44.373333-30.72-71.68-51.2-88.746667l-13.653333-13.653333c-20.48-20.48-27.306667-54.613333-27.306667-98.986667 3.413333-64.853333 27.306667-126.293333 47.786667-146.773333 6.826667-6.826667 20.48-13.653333 20.48-17.066667 116.053333-68.266667 95.573333-170.666667 92.16-184.32-3.413333-20.48-23.893333-34.133333-44.373333-34.133333h-218.453334c-13.653333 0-23.893333 10.24-23.893333 20.48 0 13.653333 10.24 20.48 23.893333 20.48h218.453334c0 6.826667 17.066667 81.92-75.093334 136.533333-3.413333 0-17.066667 13.653333-23.893333 20.48-34.133333 27.306667-61.44 105.813333-64.853333 177.493333C641.706667 633.173333 648.533333 691.2 682.666667 725.333333c3.413333 3.413333 10.24 10.24 17.066666 13.653334 20.48 20.48 37.546667 34.133333 37.546667 58.026666 0 13.653333-6.826667 27.306667-17.066667 37.546667-10.24 10.24-23.893333 17.066667-37.546666 17.066667H341.333333c-30.72-3.413333-51.2-27.306667-51.2-54.613334 0-20.48 17.066667-37.546667 34.133334-54.613333l17.066666-17.066667c30.72-30.72 44.373333-88.746667 37.546667-157.013333-3.413333-54.613333-23.893333-126.293333-64.853333-157.013333l-10.24-10.24c-3.413333-3.413333-3.413333-3.413333-6.826667-3.413334 0 0-3.413333-3.413333-6.826667-3.413333-88.746667-54.613333-75.093333-129.706667-75.093333-136.533333h225.28c10.24 0 20.48-6.826667 20.48-20.48l47.786667-324.266667 40.96 252.586667c3.413333 13.653333 13.653333 20.48 23.893333 17.066666 13.653333-3.413333 20.48-13.653333 17.066667-23.893333L549.546667-93.866667c3.413333-6.826667 0-13.653333-6.826667-20.48z"  horiz-adv-x="1024" />

    
    <glyph glyph-name="dayinji_weilianjie" unicode="&#58917;" d="M901.636753 454.078553h-64.350393V816.049512H193.29493v-362.214711H128.700786C57.769103 454.078553 0 396.065699 0 325.134016v-324.189479h193.29493v-128.944537h643.99143v128.700786h193.29493V325.134016c0 70.931683-58.012854 128.944537-128.944537 128.944537z m-340.520828-139.1821c0 17.793859 14.381338 32.175196 32.175196 32.175197h289.820519c17.793859 0 32.175196-14.381338 32.175196-32.175197 0-17.793859-14.381338-32.175196-32.175196-32.175196H593.291121c-17.793859 0-32.175196 14.381338-32.175196 32.175196z m211.820043-378.54606H257.645323v160.875982h515.290645v-160.875982z m0 517.72816H257.645323V751.699119h515.290645v-297.620566zM778.054749 391.678172c-139.1821 0-252.28279 112.856939-252.28279 252.28279C526.015711 783.143061 638.872649 896 778.054749 896s252.28279-112.856939 252.28279-252.28279c0-139.1821-112.856939-252.039038-252.28279-252.039038zM802.917401 643.71721l92.869316 92.869317c6.825042 6.825042 6.825042 17.793859 0 24.862652-6.825042 6.825042-17.793859 6.825042-24.6189 0l-92.869317-92.869317-92.869316 92.869317c-6.825042 6.825042-17.793859 6.825042-24.618901 0s-6.825042-18.03761 0-24.862652l92.869317-92.869317-92.625565-92.869317c-6.825042-6.825042-6.825042-17.793859 0-24.6189s17.793859-6.825042 24.862652 0l92.625565 92.869317 92.869317-92.869317c6.825042-6.825042 17.793859-6.825042 24.6189 0s6.825042 17.793859 0 24.6189l-93.113068 92.869317z"  horiz-adv-x="1030" />

    
    <glyph glyph-name="dayinji_lianjie" unicode="&#58918;" d="M901.715192 453.935007h-64.388904V816.190225h-643.889036v-362.255218H128.777807C57.895905 453.935007 0 396.039102 0 325.157199v-324.10885h193.166711v-128.777807h643.889035v128.777807h193.166711V325.157199c0.270542 70.881902-57.625363 128.777807-128.507265 128.777808z m-340.611889-139.058389c0 17.855746 14.338705 32.194452 32.194451 32.194452h289.750066c17.855746 0 32.194452-14.338705 32.194452-32.194452 0-17.855746-14.338705-32.194452-32.194452-32.194452H593.297754c-17.855746 0-32.194452 14.338705-32.194451 32.194452z m211.834081-378.487714H257.555614v160.972258h515.38177v-160.972258z m0 517.546103H257.555614v297.595772h515.38177v-297.595772zM778.077675 391.439894c-139.32893 0-252.144782 113.086394-252.144782 252.144782 0 139.32893 112.815852 252.144782 252.144782 252.144782s252.144782-112.815852 252.144782-252.144782c0.270542-139.058388-112.815852-252.144782-252.144782-252.144782zM888.458653 749.095905l-157.72576-157.184676L667.967239 657.923382l-26.783619-26.78362 89.549273-92.525231 184.509379 183.968296-26.783619 26.513078z"  horiz-adv-x="1030" />

    
    <glyph glyph-name="zanting" unicode="&#58880;" d="M512 833.55c-248.287 0-449.55-201.262-449.55-449.55s201.262-449.55 449.55-449.55 449.55 201.262 449.55 449.55-201.262 449.55-449.55 449.55zM512-22.462c-224.494 0-406.462 181.969-406.462 406.462s181.969 406.462 406.462 406.462 406.462-181.969 406.462-406.462-181.969-406.462-406.462-406.462zM428.3 157.425h-3.15c-14.625 0-26.606 11.981-26.606 26.606v400.162c0 14.625 11.981 26.606 26.606 26.606h3.206c14.625 0 26.606-11.981 26.606-26.606v-400.162c-0.056-14.625-11.981-26.606-26.663-26.606zM597.444 159.506h-2.644c-14.625 0-26.606 11.981-26.606 26.606v395.775c0 14.625 11.981 26.606 26.606 26.606h2.644c14.625 0 26.606-11.981 26.606-26.606v-395.775c0-14.625-11.981-26.606-26.606-26.606z"  horiz-adv-x="1024" />

    
    <glyph glyph-name="xuanzhuan" unicode="&#58890;" d="M775.6 137.1c-66.3-71.4-161-116-266.1-116-200.6 0-363.2 162.6-363.2 363.2s162.6 363.2 363.2 363.2c105.1 0 199.8-44.7 266.1-116l59.9 59.9c-81.7 86.6-197.5 140.7-326 140.7-247.3 0-447.8-200.5-447.8-447.8s200.5-447.8 447.8-447.8c128.5 0 244.3 54.1 326 140.8l-59.9 59.8zM959.3 819v-339.9h-339.9z"  horiz-adv-x="1024" />

    
    <glyph glyph-name="unselected" unicode="&#58903;" d="M911.36 896h-798.72c-61.44 0-112.64-51.2-112.64-112.64v-795.307c0-64.853 51.2-116.053 112.64-116.053h795.307c61.44 0 112.64 51.2 112.64 112.64v798.72c3.413 61.44-47.787 112.64-109.227 112.64zM955.733 39.253c0-54.613-44.373-98.987-98.987-98.987h-689.493c-54.613 0-98.987 44.373-98.987 98.987v689.493c0 54.613 44.373 98.987 98.987 98.987h689.493c54.613 0 98.987-44.373 98.987-98.987v-689.493z"  horiz-adv-x="1024" />

    
    <glyph glyph-name="jilu1" unicode="&#59038;" d="M836.678-70.865h-649.8c-35.821 0-64.969 29.126-64.969 64.915v779.875c0 35.789 29.105 64.915 64.884 64.915h479.548v-43.32h-479.547c-11.888 0-21.564-9.688-21.564-21.596v-779.874c0-11.908 9.709-21.596 21.649-21.596h649.8c11.94 0 21.659 9.793 21.659 21.85v604.164h43.32v-604.165c-0.001-35.936-29.148-65.169-64.98-65.169zM685.061 297.35h-335.725c-11.961 0-21.659 9.688-21.659 21.659s9.698 21.659 21.659 21.659h335.724c11.961 0 21.659-9.688 21.659-21.659 0.001-11.972-9.697-21.659-21.658-21.659zM685.061 167.392h-335.725c-11.961 0-21.659 9.688-21.659 21.659s9.698 21.659 21.659 21.659h335.724c11.961 0 21.659-9.688 21.659-21.659 0.001-11.972-9.697-21.659-21.658-21.659zM880.431 578.926h-217.031c-11.961 0-21.659 9.688-21.659 21.659v216.597c0 8.756 5.277 16.668 13.368 20.010 8.090 3.406 17.397 1.502 23.606-4.696l214.238-214.227c5.531-3.935 9.138-10.386 9.138-17.683-0.001-11.973-9.699-21.66-21.66-21.66zM685.061 622.244h142.649l-142.649 142.649v-142.649z"  horiz-adv-x="1024" />

    
    <glyph glyph-name="lianwangzhuangtai-duankai" unicode="&#58915;" d="M881.037319 129.932416l90.227584 90.227584a28.245785 28.245785 0 0 1-19.938201 48.111746 28.137425 28.137425 0 0 1-19.938201-8.235344l-90.227584-90.227584-89.938624 89.938625a27.992945 27.992945 0 0 1-19.938201 8.271464 27.992945 27.992945 0 0 1-19.938201-8.271464 27.884586 27.884586 0 0 1-8.271464-19.938201c0-7.549065 2.925714-14.628571 8.271464-19.974321l89.938624-89.938625-90.227584-90.227583a28.245785 28.245785 0 0 1 19.938201-48.147866h0.03612a27.956825 27.956825 0 0 1 19.938201 8.271463l90.227584 90.227584 89.938624-89.938624a28.318025 28.318025 0 0 1 48.183986 19.938201 27.992945 27.992945 0 0 1-8.271464 19.938201l-90.010864 89.974744zM818.116402 717.350829H61.837319a22.502716 22.502716 0 0 1-22.466596-22.466596v-319.336296c0-12.389136 10.07746-22.466596 22.466596-22.466597h102.68896v-339.057777a22.502716 22.502716 0 0 1 44.933192 0v160.119647c16.290088-9.391182 35.108571-14.773051 55.119012-14.773051h247.963316v-111.863422H372.035273c-14.989771 0-28.643104-12.280776-28.643104-27.270547s12.280776-27.270547 28.643104-27.270546h239.439013a31.279859 31.279859 0 0 0 5.562469 7.440705l47.136508 47.136508h-94.309136v111.863422h98.137848l-50.640141 50.640141a32.580176 32.580176 0 0 0-5.12903 6.682187H264.578483c-28.173545 0-50.784621 19.829841-55.119012 46.594709v89.830264h102.688959a22.502716 22.502716 0 0 1 22.466596 22.466596V661.401058h482.164939c31.388219 0 55.949771-24.561552 55.94977-55.949771l1.372558-332.881269c0-0.830758-0.07224-1.661517-0.10836-2.456156l56.05813 56.058131V605.487407a112.51358 112.51358 0 0 1-111.935661 111.863422zM289.645714 398.014533H84.303915V537.184621h80.222364v-50.170582a22.502716 22.502716 0 0 1 44.933192 0V537.184621H289.681834v-139.170088z m0 184.10328H84.303915v90.299824h205.341799v-90.299824z"  horiz-adv-x="1024" />

    
    <glyph glyph-name="qingchu" unicode="&#58973;" d="M907.2 470.4c-3.2 4.8-8 9.6-12.8 11.2l-73.6 36.8-68.8 35.2 92.8 185.6c6.4 12.8-4.8 30.4-22.4 40-19.2 9.6-40 6.4-46.4-4.8l-92.8-185.6-62.4 30.4-96 48h-1.6-1.6-1.6-1.6-1.6-1.6-3.2-1.6-1.6-1.6-1.6-1.6-3.2-1.6-1.6-1.6-3.2-1.6s-1.6 0-1.6-1.6l-1.6-1.6s-1.6 0-1.6-1.6l-1.6-1.6-1.6-1.6-1.6-1.6-1.6-1.6s0-1.6-1.6-1.6c0 0 0-1.6-1.6-1.6 0 0 0-1.6-1.6-1.6v-1.6c-22.4-44.8-51.2-86.4-86.4-124.8l-1.6-1.6c-22.4-25.6-46.4-48-72-70.4-68.8-57.6-148.8-104-238.4-139.2-12.8-4.8-20.8-17.6-20.8-32 0-11.2 4.8-22.4 14.4-28.8l539.2-329.6c3.2-1.6 8-3.2 12.8-4.8 4.8-3.2 11.2-6.4 17.6-6.4 8 0 16 3.2 22.4 9.6 75.2 75.2 136 158.4 177.6 248 41.6 91.2 64 185.6 64 278.4 8 11.2 6.4 16 3.2 22.4z m-116.8-270.4c-35.2-76.8-86.4-148.8-148.8-214.4l-118.4 73.6 75.2 73.6c12.8 12.8 12.8 32 0 44.8-12.8 12.8-32 12.8-44.8 0l-86.4-84.8-140.8 86.4 84.8 59.2c14.4 9.6 17.6 28.8 8 43.2-9.6 14.4-28.8 17.6-43.2 8l-107.2-75.2-108.8 65.6c75.2 33.6 144 76.8 203.2 128 22.4 19.2 43.2 38.4 62.4 59.2l384-219.2c-4.8-16-11.2-32-19.2-48z m40 108.8L468.8 515.2c20.8 25.6 40 52.8 56 81.6l324.8-163.2c-1.6-41.6-8-83.2-19.2-124.8z"  horiz-adv-x="1024" />

    
    <glyph glyph-name="xuanze4" unicode="&#58887;" d="M798.112 896L225.888 896C101.12 896 0 794.88 0 670.112l0-572.224C0-26.879999999999995 101.12-128 225.888-128l572.224 0C922.88-128 1024-26.879999999999995 1024 97.88800000000003L1024 670.112C1024 794.88 922.88 896 798.112 896zM986.656 118.75199999999995c0-115.648-93.76-209.408-209.408-209.408L246.752-90.65599999999995c-115.648 0-209.408 93.76-209.408 209.408L37.344 649.248c0 115.648 93.76 209.408 209.408 209.408l530.496 0c115.648 0 209.408-93.76 209.408-209.408L986.656 118.75199999999995zM-33.610666666667 569.952L-86.31466666666694 618.976-434.8586666666664 248.736-643.9466666666667 436.672-691.7226666666668 382.84799999999996-431.6266666666664 149.024-430.7306666666664 150.01599999999996-429.7706666666664 149.12Z"  horiz-adv-x="1024" />

    
    <glyph glyph-name="zanwushuju" unicode="&#58905;" d="M990.32064 107.93984c0 31.81568-27.51488 58.1632-63.58016 63.30368-0.98304 24.2176-24.576 43.6224-53.61664 43.6224-29.65504 0-53.69856-20.24448-53.69856-45.18912 0-15.60576 9.50272-29.25568 23.81824-37.36576-0.13312-0.23552-0.21504-0.50176-0.31744-0.72704-86.48704 18.04288-209.1008 29.31712-345.15968 29.31712-95.21152 0-183.8592-5.51936-258.1504-15.02208-2.84672 33.31072-35.79904 59.5968-76.11392 59.5968-38.84032 0-70.85056-24.40192-75.70432-55.97184-19.17952-6.90176-32.62464-22.89664-32.62464-41.56416 0-2.2016 0.23552-4.33152 0.6144-6.43072-20.82816-10.496-32.31744-21.92384-32.31744-33.87392C23.47008 16.13824 235.80672-25.6 497.75616-25.6c259.51232 0 470.31296 40.99072 474.2144 91.8016 11.40736 11.23328 18.35008 25.79456 18.35008 41.73824M901.38624 83.10784c0-24.61696-172.42112-44.58496-385.1264-44.58496-212.69504 0-385.11616 19.95776-385.11616 44.58496 0 24.60672 172.42112 44.58496 385.11616 44.58496 212.70528 0 385.1264-19.968 385.1264-44.58496M695.31648 200.7552c-7.0656 0-14.29504 0.09216-21.62688 0.27648l0.16384 6.10304c7.28064-0.17408 14.4384-0.256 21.47328-0.256l3.072 0.01024 0.06144-6.12352-3.14368-0.01024z m9.30816 0.0512l-0.08192 6.12352a672.29696 672.29696 0 0 1 24.53504 0.70656l0.27648-6.10304c-8.02816-0.36864-16.2816-0.6144-24.7296-0.72704z m-37.09952 0.39936c-8.11008 0.24576-16.35328 0.6144-24.71936 1.06496l0.33792 6.10304c8.31488-0.4608 16.50688-0.8192 24.55552-1.06496l-0.17408-6.10304z m68.03456 0.6656l-0.3584 6.10304c8.47872 0.49152 16.6912 1.15712 24.43264 1.97632l0.63488-6.08256c-7.8336-0.82944-16.13824-1.49504-24.70912-1.9968z m-98.92864 0.75776c-8.11008 0.50176-16.34304 1.0752-24.65792 1.75104l0.50176 6.10304c8.28416-0.6656 16.46592-1.24928 24.53504-1.75104l-0.37888-6.10304z m129.80224 1.9456l-0.7168 6.06208c8.45824 1.024 16.5888 2.26304 24.15616 3.69664l1.13664-6.00064c-7.70048-1.47456-15.96416-2.73408-24.576-3.75808z m-160.60416 0.32768c-8.13056 0.69632-16.34304 1.47456-24.60672 2.32448l0.62464 6.08256c8.25344-0.84992 16.42496-1.61792 24.51456-2.32448l-0.53248-6.08256z m-30.76096 2.94912c-8.12032 0.8704-16.31232 1.83296-24.54528 2.84672l0.75776 6.06208c8.20224-1.024 16.35328-1.95584 24.45312-2.82624l-0.6656-6.08256z m222.02368 1.69984l-1.25952 5.98016a226.1504 226.1504 0 0 1 23.49056 6.21568l1.92512-5.79584c-7.29088-2.4064-15.4112-4.54656-24.15616-6.4z m-252.70272 1.91488a1664 1664 0 0 0-24.48384 3.31776l0.8704 6.0416c8.16128-1.15712 16.29184-2.26304 24.39168-3.29728l-0.77824-6.06208z m-30.57664 4.20864a1622.7328 1622.7328 0 0 0-24.4224 3.7376l0.9728 6.0416c8.12032-1.31072 16.24064-2.56 24.33024-3.7376l-0.88064-6.0416z m313.33376 2.29376l-2.0992 5.74464a120.91392 120.91392 0 0 1 21.68832 10.25024l3.19488-5.20192c-6.48192-4.00384-14.15168-7.6288-22.784-10.79296z m-343.8592 2.42688c-8.12032 1.34144-16.24064 2.73408-24.3712 4.16768l1.06496 6.02112c8.09984-1.44384 16.20992-2.82624 24.29952-4.1472l-0.99328-6.0416z m-30.45376 5.26336c-8.09984 1.47456-16.19968 2.99008-24.27904 4.5568l1.16736 6.00064c8.04864-1.56672 16.11776-3.09248 24.19712-4.53632l-1.08544-6.02112z m-30.34112 5.74464c-8.07936 1.60768-16.14848 3.24608-24.1664 4.93568l1.25952 5.98016c8.00768-1.6896 16.03584-3.328 24.10496-4.9152l-1.19808-6.00064z m432.76288 0.86016l-3.54304 4.97664c6.9632 4.95616 12.40064 10.56768 16.15872 16.68096l5.20192-3.19488c-4.18816-6.81984-10.1888-13.02528-17.8176-18.46272z m-462.94016 5.35552c-8.0896 1.7408-16.128 3.51232-24.12544 5.33504l1.36192 5.95968c7.96672-1.82272 15.98464-3.59424 24.04352-5.31456l-1.28-5.98016z m-30.13632 6.69696c-8.07936 1.87392-16.09728 3.77856-24.04352 5.7344l1.46432 5.9392c7.91552-1.9456 15.90272-3.86048 23.95136-5.71392l-1.37216-5.95968z m-30.03392 7.2192c-8.05888 2.00704-16.03584 4.05504-23.93088 6.144l1.55648 5.89824c7.86432-2.06848 15.8208-4.10624 23.84896-6.12352l-1.47456-5.91872z m543.98976 4.93568l-5.56032 2.51904c2.6624 5.86752 4.00384 12.30848 4.00384 19.1488 0 1.10592-0.03072 2.24256-0.1024 3.38944l6.10304 0.3584c0.07168-1.26976 0.12288-2.51904 0.12288-3.74784a52.41856 52.41856 0 0 0-4.56704-21.66784z m-573.89056 2.77504c-8.04864 2.1504-15.99488 4.352-23.81824 6.57408l1.66912 5.87776c7.80288-2.22208 15.7184-4.4032 23.72608-6.5536l-1.57696-5.89824z m-29.7472 8.26368c-8.0384 2.32448-15.94368 4.66944-23.69536 7.05536l1.80224 5.8368c7.72096-2.36544 15.58528-4.72064 23.59296-7.02464l-1.69984-5.86752z m-29.60384 8.87808c-8.01792 2.49856-15.86176 5.02784-23.53152 7.5776l1.92512 5.79584c7.6288-2.53952 15.44192-5.05856 23.41888-7.53664l-1.81248-5.8368z m-29.37856 9.58464a1016.80128 1016.80128 0 0 0-23.33696 8.20224l2.0992 5.74464c7.50592-2.74432 15.2576-5.45792 23.1936-8.16128l-1.95584-5.7856z m660.31616 1.3824c-1.10592 7.05536-3.49184 14.68416-7.08608 22.65088l5.5808 2.51904c3.81952-8.46848 6.35904-16.61952 7.54688-24.22784l-6.0416-0.94208z m-689.4592 8.96a817.80736 817.80736 0 0 0-23.07072 8.97024l2.304 5.66272c7.34208-2.99008 14.98112-5.95968 22.89664-8.9088l-2.12992-5.72416z m-28.78464 11.32544a599.63392 599.63392 0 0 0-22.69184 9.984l2.58048 5.53984c7.09632-3.29728 14.60224-6.6048 22.46656-9.8816l-2.3552-5.64224z m708.56704 7.81312a179.41504 179.41504 0 0 1-12.50304 20.71552l5.0176 3.4816c5.08928-7.35232 9.44128-14.56128 12.92288-21.44256l-5.43744-2.75456z m-16.03584 25.66144a319.2832 319.2832 0 0 1-15.17568 19.08736l4.63872 3.98336a323.92192 323.92192 0 0 0 15.48288-19.46624l-4.94592-3.60448z m-19.21024 23.69536c-5.12 5.77536-10.752 11.78624-16.7424 17.8688l4.36224 4.29056a482.6112 482.6112 0 0 0 16.95744-18.09408l-4.57728-4.06528z m-21.06368 22.2208a1957.84704 1957.84704 0 0 0-17.34656 17.55136l4.38272 4.27008c5.59104-5.7344 11.34592-11.56096 17.28512-17.50016l-4.32128-4.32128z m-21.6576 21.97504a1522.98496 1522.98496 0 0 0-17.02912 17.8688l4.46464 4.17792a1691.7504 1691.7504 0 0 1 16.96768-17.79712l-4.4032-4.2496z m-21.248 22.3744a1410.5088 1410.5088 0 0 0-16.66048 18.2272l4.53632 4.07552c5.3248-5.92896 10.8544-11.97056 16.59904-18.14528l-4.47488-4.15744z m-20.75648 22.8352a1163.49952 1163.49952 0 0 0-16.22016 18.64704l4.6592 3.96288c5.13024-6.0416 10.50624-12.22656 16.11776-18.54464l-4.5568-4.06528zM723.968 477.58336a883.87584 883.87584 0 0 0-15.63648 19.13856l4.78208 3.79904c4.90496-6.17472 10.07616-12.50304 15.54432-19.00544l-4.68992-3.93216z m-19.47648 23.98208a702.07488 702.07488 0 0 0-14.90944 19.74272l4.93568 3.59424c4.59776-6.32832 9.53344-12.84096 14.78656-19.56864l-4.8128-3.76832z m-18.5344 24.77056c-4.93568 6.93248-9.6256 13.824-13.93664 20.48l5.14048 3.31776c4.2496-6.59456 8.88832-13.40416 13.78304-20.25472l-4.98688-3.54304z m-17.26464 25.7024a407.43936 407.43936 0 0 0-12.56448 21.41184l5.35552 2.9184c3.74784-6.88128 7.90528-13.96736 12.38016-21.08416l-5.1712-3.24608z m-15.47264 26.91072a264.97024 264.97024 0 0 0-10.45504 22.60992l5.6832 2.28352c2.79552-7.00416 6.22592-14.42816 10.1888-22.08768l-5.41696-2.80576z m-12.6976 28.44672a158.99648 158.99648 0 0 0-6.88128 24.12544l6.00064 1.16736c1.42336-7.29088 3.64544-15.09376 6.61504-23.1936l-5.7344-2.0992z m-7.91552 30.35136a100.80256 100.80256 0 0 0-1.01376 13.84448c0 3.9424 0.27648 7.8336 0.8192 11.55072l6.0416-0.88064a75.35616 75.35616 0 0 1-0.73728-10.67008c0-4.12672 0.31744-8.4992 0.95232-12.99456l-6.06208-0.84992z m6.95296 30.26944l-5.9392 1.42336c2.048 8.54016 5.70368 16.37376 10.87488 23.25504l4.88448-3.66592a56.76032 56.76032 0 0 1-9.82016-21.01248z m13.54752 25.4976l-4.49536 4.12672c5.4272 5.91872 12.22656 11.15136 20.20352 15.57504l2.95936-5.34528c-7.40352-4.096-13.6704-8.92928-18.66752-14.35648z m23.98208 17.1008l-2.64192 5.50912a136.73472 136.73472 0 0 0 23.67488 8.5504l1.57696-5.89824c-8.31488-2.23232-15.93344-4.97664-22.60992-8.16128z m28.48768 9.61536l-1.36192 5.95968a225.39264 225.39264 0 0 0 24.6272 4.1472l0.69632-6.07232c-8.46848-0.96256-16.52736-2.32448-23.9616-4.03456z m96.02048 4.32128l-4.92544 0.41984 0.48128 6.0928 5.00736-0.41984-0.5632-6.0928z m-65.96608 0.34816l-0.5632 6.0928c7.91552 0.72704 16.2816 1.15712 24.86272 1.28l0.08192-6.11328c-8.42752-0.12288-16.61952-0.54272-24.38144-1.25952z m54.94784 0.50176a405.504 405.504 0 0 1-24.45312 0.79872l0.02048 6.11328a409.4976 409.4976 0 0 0 24.81152-0.80896l-0.37888-6.10304zM686.08 683.69408a8.67328 8.67328 0 1 0 0 17.34656 8.67328 8.67328 0 0 0 0-17.34656z m0 14.75584a6.0928 6.0928 0 0 1 0-12.15488 6.08256 6.08256 0 1 1 0 12.15488zM332.00128 488.56064l-70.62528-48.15872V106.496s0-20.86912 24.08448-24.07424c24.07424-3.20512 488.01792 0 488.01792 0s24.07424 9.61536 24.07424 25.68192V446.8224l-70.62528 41.73824H332.00128zM422.66624 73.79968c-126.99648 0-135.41376 1.11616-138.16832 1.49504-23.99232 3.18464-30.33088 21.80096-30.33088 31.20128V444.2112l75.61216 51.5584H728.8832l75.85792-44.83072v-342.82496c0-20.34688-25.67168-31.19104-28.60032-32.3584l-2.62144-0.52224c-2.05824-0.02048-207.88224-1.4336-350.85312-1.4336zM268.57472 436.59264v-330.10688c0.0512-2.37568 1.16736-14.72512 17.82784-16.93696 4.66944-0.62464 32.09216-1.36192 136.27392-1.36192 136.59136 0 330.57792 1.29024 349.29664 1.42336 5.82656 2.64192 18.37056 10.05568 18.37056 18.49344V442.71616l-65.40288 38.64576H334.22336l-65.64864-44.76928zM631.1936 509.24544v-203.66336l-107.99104-77.80352-188.47744 145.55136V574.18752s-2.07872 23.01952 16.19968 24.55552c9.90208 0.8704 74.2912 0.38912 131.19488-0.17408h1.57696c47.39072-0.512 89.12896-1.06496 89.12896-1.06496l58.2656-88.1152 0.1024-0.14336zM523.07968 220.61056L328.96 370.50368V574.18752c-0.1024 0.93184-1.04448 13.91616 6.38976 22.77376 3.69664 4.4032 8.91904 7.00416 15.09376 7.5264 3.80928 0.32768 14.94016 0.49152 34.02752 0.49152 26.19392 0 63.31392-0.3072 97.71008-0.64512h1.52576c47.4624-0.512 89.21088-1.06496 89.21088-1.06496l3.04128-0.04096 60.90752-92.1088 0.09216-1.87392v-206.61248l-113.87904-82.0224zM340.48 376.15616l182.8352-141.18912 102.11328 73.5744V507.51488l-55.71584 84.2752c-10.43456 0.13312-46.26432 0.60416-86.0672 1.024h-1.51552c-34.41664 0.33792-71.49568 0.64512-97.65888 0.64512-23.02976 0-30.67904-0.24576-33.04448-0.45056-12.06272-1.01376-11.1104-16.55808-10.96704-18.3296l0.02048-198.52288zM349.17376 532.74624h227.28704v-48.14848H349.17376zM377.78432 463.02208h165.92896v-17.28512H377.78432zM377.78432 421.15072H597.4016v-13.86496H377.78432zM432.85504 509.24544l-0.70656-210.944 93.19424-72.18176 203.9808 148.96128V574.18752s2.0992 23.01952-16.19968 24.55552c-9.90208 0.8704-74.28096 0.38912-131.19488-0.17408h-1.5872c-47.38048-0.512-89.11872-1.06496-89.11872-1.06496l-58.25536-88.1152-0.11264-0.14336zM525.24032 218.9312l-98.85696 76.56448 0.72704 215.61344 1.06496 1.49504 59.92448 90.624 3.05152 0.04096s41.74848 0.5632 89.1392 1.06496h1.64864c34.34496 0.33792 71.46496 0.64512 97.64864 0.64512 19.07712 0 30.21824-0.16384 34.03776-0.50176 6.17472-0.52224 11.38688-3.1232 15.09376-7.53664 7.424-8.84736 6.48192-21.83168 6.33856-23.28576l0.03072-201.50272L525.24032 218.9312z m-87.31648 82.19648l87.52128-67.79904 198.11328 144.6912V574.18752c0.17408 2.27328 1.1264 17.80736-10.91584 18.82112-2.38592 0.21504-10.0352 0.4608-33.06496 0.4608-26.1632 0-63.24224-0.3072-97.5872-0.64512h-1.64864c-39.75168-0.43008-75.5712-0.89088-85.99552-1.024l-55.73632-84.29568-0.68608-206.37696zM487.58784 532.74624h227.28704v-48.14848H487.58784zM548.92544 463.02208h165.94944v-17.28512H548.92544zM495.24736 421.15072h219.62752v-13.86496H495.24736zM525.30176 223.21152l-1.39264 1.06496L379.82208 335.872V542.72l0.41984 0.60416 59.00288 89.25184 1.23904 0.01024s41.73824 0.55296 89.11872 1.06496h1.61792c47.4112-0.52224 89.14944-1.06496 89.14944-1.06496l1.23904-0.01024 59.33056-89.7536 0.1024-205.6704-0.95232-0.69632-154.78784-113.24416zM384.49152 338.14528l140.88192-109.09696 150.99904 110.45888-0.1024 201.90208-57.21088 86.51776c-7.22944 0.09216-45.27104 0.59392-87.87968 1.05472h-1.55648c-42.57792-0.4608-80.61952-0.96256-87.8592-1.05472l-57.28256-86.65088v-203.13088zM830.12608 750.55104l-31.34464-50.41152v-0.33792H830.464v-8.3456h-44.544v5.62176l31.68256 50.92352v0.33792h-28.95872v8.26368h41.48224v-6.05184zM883.21024 783.48288l-19.94752-32.1024v-0.21504h20.1728v-5.31456h-28.3648v3.584l20.1728 32.41984v0.21504h-18.432v5.25312h26.39872v-3.84zM678.7072 541.99296V338.3296L525.34272 226.12992l-2.14016 1.65888-141.03552 109.21984 0.08192 269.90592s-2.0992 23.02976 16.19968 24.56576c9.89184 0.86016 74.27072 0.37888 131.18464-0.17408h1.5872c47.38048-0.52224 89.11872-1.06496 89.11872-1.06496l58.2656-88.12544 0.1024-0.12288zM525.24032 218.92096L376.41216 334.19264l0.08192 272.73216c-0.1024 0.93184-1.05472 13.91616 6.36928 22.77376 3.69664 4.41344 8.92928 7.02464 15.104 7.53664 3.7888 0.32768 14.86848 0.49152 33.85344 0.49152 26.19392 0 63.39584-0.3072 97.87392-0.63488h1.52576c47.45216-0.52224 89.20064-1.06496 89.20064-1.06496l3.04128-0.04096 60.90752-92.11904 0.1024-1.86368v-206.58176l-159.232-116.50048zM387.93216 339.83488l137.51296-106.48576 147.5072 107.90912V540.28288l-55.72608 84.24448c-10.43456 0.13312-46.26432 0.59392-86.05696 1.03424h-1.52576c-34.48832 0.33792-71.64928 0.63488-97.81248 0.63488-22.90688 0-30.5152-0.23552-32.8704-0.44032-12.07296-1.01376-11.1104-16.56832-10.96704-18.3296l-0.06144-267.59168zM430.08 553.97376h200.71424v-32.72704H430.08zM430.08 490.01472h123.82208v-8.6528H430.08zM430.08 441.1904h191.35488v-6.92224H430.08zM430.08 402.82112h107.56096v-7.49568H430.08zM430.08 363.61216h194.4064v-10.3936H430.08zM615.28064 571.21792l54.72256-22.38464-48.42496 75.30496c-26.46016-37.94944-24.80128-35.84-1.49504 3.55328-27.12576-45.85472-14.21312-24.05376-19.73248-33.1776-8.87808-14.70464 14.92992-23.296 14.92992-23.296zM684.71808 536.59648l-71.61856 29.2864c-1.40288 0.50176-15.7184 5.9392-19.54816 16.7424-1.18784 3.3792-1.8432 8.704 1.88416 14.85824 0.59392 0.9728 1.09568 1.82272 1.59744 2.52928h-0.01024c0.19456 0.29696 1.04448 1.7408 4.2496 7.168l13.86496 23.42912 2.79552-1.64864 3.84 5.51936 62.94528-97.88416z m-78.63296 56.23808l-0.79872-1.30048c-1.49504-2.4576-1.25952-3.9936-0.89088-5.04832 1.51552-4.31104 8.69376-8.32512 12.8512-9.85088l38.03136-15.55456-33.8944 52.71552c-9.1136-13.07648-13.01504-18.61632-15.29856-20.96128zM524.73856 153.67168l-103.12704 73.94304 8.3968 11.69408 94.43328-67.71712 87.59296 67.28704 8.7552-11.4176zM101.12 330.40384c-3.82976 3.67616-10.42432 6.77888-18.67776 6.77888 0 0 10.04544 0.01024 17.60256 6.22592 4.6592 3.85024 8.26368 10.496 8.26368 19.65056 0 0-0.02048-12.26752 8.27392-19.9168 3.81952-3.51232 9.90208-5.95968 17.6128-5.95968 0 0-9.84064-0.27648-17.32608-6.21568-4.87424-3.88096-8.5504-10.55744-8.5504-19.6608-0.02048-0.01024 0.79872 11.43808-7.19872 19.0976M888.3712 322.05824c-1.97632 1.88416-5.38624 3.50208-9.64608 3.50208 0 0 5.19168 0 9.08288 3.20512 2.4064 1.96608 4.27008 5.41696 4.27008 10.12736 0 0-0.01024-6.32832 4.2496-10.28096 1.97632-1.81248 5.10976-3.06176 9.09312-3.06176 0 0-5.07904-0.1536-8.92928-3.2256-2.51904-1.98656-4.41344-5.43744-4.41344-10.12736-0.01024 0 0.4096 5.90848-3.70688 9.86112M159.24224 379.41248c-2.9696 2.85696-8.07936 5.2736-14.4896 5.2736 0 0 7.80288 0.01024 13.63968 4.82304 3.61472 2.99008 6.4 8.16128 6.4 15.21664 0 0-0.01024-9.50272 6.41024-15.42144 2.9696-2.72384 7.68-4.61824 13.66016-4.61824 0 0-7.63904-0.22528-13.43488-4.83328-3.76832-3.00032-6.62528-8.17152-6.62528-15.23712-0.01024-0.01024 0.63488 8.87808-5.56032 14.7968M525.21984 217.12896L299.75552 390.56384l8.67328 11.48928 33.06496-24.9344 183.9616-141.98784L754.13504 402.1248l8.48896-11.63264z"  horiz-adv-x="1024" />

    
    <glyph glyph-name="xuanze3" unicode="&#58892;" d="M907.64 896H116.36C52.36 896 0 843.64 0 779.64V-11.64c0-64 52.36-116.36 116.36-116.36h791.28c64 0 116.36 52.36 116.36 116.36V779.64C1024 843.64 971.64 896 907.64 896z m46.545-907.639c0-25.135-21.417-46.538-46.546-46.538H116.361c-25.136 0-46.538 21.403-46.538 46.538V779.64c0 25.128 21.402 46.538 46.538 46.538h791.278c25.129 0 46.546-21.41 46.546-46.538V-11.64zM804.102 651.038L369.28 197.663 217.526 355.914c-13.809 14.407-36.196 14.407-50.004 0-13.817-14.4-13.817-37.738 0-52.146l176.755-184.34c6.908-7.2 15.959-10.8 25.002-10.8 9.058 0 18.101 3.6 25.002 10.8l459.825 479.455c13.817 14.407 13.817 37.747 0 52.155-13.808 14.407-36.195 14.407-50.004 0z"  horiz-adv-x="1024" />

    
    <glyph glyph-name="tianjiabanzhuren" unicode="&#58902;" d="M495.5 46.4c-6.8 0-13.6 1.4-20.1 4.3-58.7 26-353 168.1-376.3 414.5-6.3 66.2 14.7 132.1 57.6 181.1 40.5 46.2 96.4 73 157.4 75.4 70.7 2.7 137-27.1 181.5-80.7 44.6 53.6 110.9 83.5 181.5 80.7 60.9-2.3 116.9-29.1 157.4-75.4 42.9-48.9 63.7-114.9 57.6-181.1-4.4-47.5-19.3-94.3-44.2-139.1-4.8-8.6-15.7-11.7-24.2-7-8.6 4.7-11.7 15.6-7 24.2 22.4 40.4 35.9 82.5 39.9 125.2 5.3 56.5-12.5 112.7-48.8 154.3-34 38.9-80.9 61.3-131.9 63.3-66.8 2.5-128.5-29.1-165.3-84.7-3.3-4.9-8.9-7.9-14.8-7.9-6 0-11.5 3-14.8 7.9-36.9 55.6-98.6 87.2-165.3 84.7-51.1-1.9-97.9-24.4-131.9-63.3-36.4-41.6-54.2-97.8-48.8-154.3C156 242 434.2 107.9 489.8 83.4c3.7-1.6 7.7-1.6 11.5 0 16.6 7.3 43.1 19.9 75.1 38.1 8.5 4.8 19.3 1.9 24.3-6.7 4.8-8.5 1.8-19.4-6.7-24.3-33.2-18.9-60.8-32-78.2-39.7-6.7-2.9-13.5-4.4-20.3-4.4z m0 0M875.2 137.9H660.8c-9.9 0-17.8 7.9-17.8 17.8s7.9 17.8 17.8 17.8h214.4c9.9 0 17.8-7.9 17.8-17.8 0-9.7-8-17.8-17.8-17.8z m0 0M768 30.8c-9.9 0-17.8 7.9-17.8 17.8V262.9c0 9.9 7.9 17.8 17.8 17.8s17.8-7.9 17.8-17.8v-214.3c0-9.8-7.9-17.8-17.8-17.8z m0 0"  horiz-adv-x="1024" />

    
    <glyph glyph-name="xuanzepx" unicode="&#58907;" d="M0 676.571429c0 124.342857 95.085714 219.428571 219.428571 219.428571h585.142858c124.342857 0 219.428571-95.085714 219.428571-219.428571v-585.142858c0-124.342857-95.085714-219.428571-219.428571-219.428571H219.428571c-124.342857 0-219.428571 95.085714-219.428571 219.428571V676.571429z m73.142857 0v-585.142858c0-80.457143 65.828571-146.285714 146.285714-146.285714h585.142858c80.457143 0 146.285714 65.828571 146.285714 146.285714V676.571429c0 80.457143-65.828571 146.285714-146.285714 146.285714H219.428571c-80.457143 0-146.285714-65.828571-146.285714-146.285714z"  horiz-adv-x="1024" />

    


  </font>
</defs>
</svg>
